<?xml version="1.0" encoding="utf-8"?>
<!-- Generator: Adobe Illustrator 25.2.3, SVG Export Plug-In . SVG Version: 6.00 Build 0)  -->
<svg version="1.1" id="Camada_1" xmlns="http://www.w3.org/2000/svg" xmlns:xlink="http://www.w3.org/1999/xlink" x="0px" y="0px"
	 viewBox="0 0 497 92.1" style="enable-background:new 0 0 497 92.1;" xml:space="preserve">
<style type="text/css">
	.st0{fill-rule:evenodd;clip-rule:evenodd;fill:#CF3034;}
	.st1{fill-rule:evenodd;clip-rule:evenodd;fill:#AA2C2E;}
	.st2{fill-rule:evenodd;clip-rule:evenodd;fill:#4B4B4D;}
	.st3{fill:#373435;}
	.st4{fill:#727376;}
</style>
<path class="st0" d="M54.2,0c0.4,0,0.7,0,1,0l56,0.1C110.4,1.3,94,23.7,71.5,24c-0.1,0-0.3,0-0.4,0l-15.9-0.1c-0.1,0-0.3,0-0.4,0
	c-3.7,0.1-7.1,0.6-10.3,1.7c-3.3,1.1-6.2,2.7-8.6,4.6c-2.5,2-4.4,4.3-5.8,7.1c-1.4,2.7-2.1,5.7-2.1,8.9c0,3.3,0.7,6.3,2,9
	c1.4,2.7,3.3,5,5.6,6.9c2.4,1.9,5.2,3.4,8.6,4.5c3.3,1,7,1.6,10.9,1.6l32.9,0.1l0-33.7c1.4,0.3,28.5,6.1,28.5,32c0,0.4,0,8.4,0,10.2
	c0,6.1-3.5,14.9-15.7,15.1C80.3,92,56.4,92,55.2,91.9c-8,0-15.3-1.2-22.1-3.6c-6.7-2.4-12.6-5.7-17.5-9.9
	c-4.9-4.2-8.7-9.1-11.5-14.9C1.4,57.8,0,51.6,0,44.9c0-6.6,1.4-12.7,4.1-18.2s6.6-10.3,11.5-14.3c4.9-4,10.7-7.1,17.5-9.2
	C39.5,1.1,46.6,0.1,54.2,0L54.2,0z"/>
<path class="st1" d="M55.2,91.9c25.5-1,27-13.5,26.9-23.6l6,0l0-33.7c1.4,0.3,28.5,6.1,28.5,32c0,0.4,0,8.4,0,10.2
	c0,6.1-3.5,14.9-15.7,15.1C80.3,92,56.4,92,55.2,91.9L55.2,91.9z"/>
<path class="st0" d="M88.1,68.4l0-33.7c1.4,0.3,28.5,6.1,28.5,32c0,0.4,0,8.4,0,10.2c0,6.1-3.5,14.9-15.7,15.1
	C80.3,92,56.4,92,55.2,91.9C86.1,90.8,88.1,81.2,88.1,68.4L88.1,68.4z"/>
<path class="st4" d="M184.2,82.7v-2.4h-5.3v1.4h3.7v1.1c0,1.2-0.2,2-0.9,2.7c-0.7,0.8-1.8,1.3-2.8,1.3c-1,0-2-0.4-2.6-1
	c-1-1-1.1-2-1.1-5.2c0-3.2,0.1-4.2,1.1-5.2c0.7-0.7,1.6-1.1,2.6-1.1c1.9,0,3.2,1.2,3.7,3.1h1.6c-0.5-2.6-2.4-4.5-5.3-4.5
	c-1.5,0-2.8,0.6-3.9,1.6c-1.4,1.4-1.4,2.9-1.4,6.1c0,3.2,0,4.7,1.4,6.1c1,1,2.4,1.6,3.9,1.6c1.5,0,2.9-0.6,4-1.7
	C183.9,85.6,184.2,84.4,184.2,82.7L184.2,82.7z"/>
<path class="st4" d="M200.8,77.3c0,1.8-1.2,2.7-3,2.7h-4v-5.5h4C199.6,74.5,200.8,75.5,200.8,77.3L200.8,77.3z M202.7,88.2l-3.6-6.8
	c2-0.4,3.3-1.8,3.3-4c0-2.6-1.8-4.2-4.5-4.2h-5.8v15.1h1.6v-6.7h3.6l3.4,6.7H202.7L202.7,88.2z"/>
<path class="st4" d="M220.3,83.2V73.1h-1.6v9.9c0,2.3-1.4,3.8-3.7,3.8c-2.2,0-3.6-1.5-3.6-3.8v-9.9h-1.6v10.1c0,3,2.2,5.1,5.2,5.1
	C218.1,88.3,220.3,86.2,220.3,83.2L220.3,83.2z"/>
<path class="st4" d="M237.3,77.5c0,2-1.3,3-3.2,3h-3.9v-6h3.9C236,74.5,237.3,75.5,237.3,77.5L237.3,77.5z M238.9,77.5
	c0-2.7-1.9-4.4-4.6-4.4h-5.6v15.1h1.6V82h4C237,82,238.9,80.2,238.9,77.5L238.9,77.5z"/>
<path class="st4" d="M254.5,80.6c0,3.1-0.1,4.2-1,5.1c-0.7,0.7-1.6,1.1-2.6,1.1s-2-0.4-2.6-1.1c-0.9-1-1-2-1-5.1
	c0-3.2,0.1-4.2,1-5.2c0.7-0.7,1.6-1.1,2.6-1.1s2,0.4,2.6,1.1C254.4,76.4,254.5,77.5,254.5,80.6L254.5,80.6z M256.1,80.6
	c0-3.2,0-4.7-1.4-6.1c-1-1-2.4-1.6-3.9-1.6c-1.5,0-2.8,0.6-3.9,1.6c-1.4,1.4-1.4,2.9-1.4,6.1c0,3.2,0,4.7,1.4,6.1
	c1,1,2.4,1.6,3.9,1.6c1.5,0,2.8-0.6,3.9-1.6C256.1,85.3,256.1,83.8,256.1,80.6L256.1,80.6z"/>
<path class="st4" d="M273.2,84c0-1.2-0.4-2.3-1.2-3c-0.7-0.6-1.3-0.9-2.7-1.1l-1.7-0.3c-0.8-0.1-1.6-0.4-2-0.8
	c-0.5-0.4-0.7-1-0.7-1.7c0-1.7,1.2-2.8,3.2-2.8c1.6,0,2.6,0.5,3.5,1.3l1-1c-1.3-1.2-2.6-1.6-4.5-1.6c-3,0-4.8,1.7-4.8,4.3
	c0,1.2,0.4,2.2,1.1,2.8c0.7,0.6,1.6,0.9,2.8,1.1l1.8,0.3c1.1,0.2,1.5,0.3,2,0.7s0.7,1.1,0.7,1.9c0,1.7-1.4,2.8-3.6,2.8
	c-1.7,0-2.9-0.4-4.1-1.6l-1.1,1.1c1.4,1.4,2.9,2,5.2,2C271.1,88.3,273.2,86.7,273.2,84L273.2,84z"/>
<path class="st4" d="M300.3,82.7v-2.4H295v1.4h3.7v1.1c0,1.2-0.3,2-0.9,2.7c-0.7,0.8-1.8,1.3-2.9,1.3c-1,0-2-0.4-2.6-1
	c-1-1-1-2-1-5.2c0-3.2,0.1-4.2,1-5.2c0.7-0.7,1.6-1.1,2.6-1.1c1.9,0,3.2,1.2,3.7,3.1h1.6c-0.5-2.6-2.4-4.5-5.3-4.5
	c-1.5,0-2.8,0.6-3.9,1.6c-1.4,1.4-1.4,2.9-1.4,6.1c0,3.2,0,4.7,1.4,6.1c1,1,2.4,1.6,3.9,1.6c1.5,0,2.9-0.6,4-1.7
	C300,85.6,300.3,84.4,300.3,82.7L300.3,82.7z"/>
<polygon class="st4" points="317.6,88.2 317.6,86.7 309.9,86.7 309.9,81.3 316.5,81.3 316.5,79.9 309.9,79.9 309.9,74.5 317.6,74.5 
	317.6,73.1 308.3,73.1 308.3,88.2 "/>
<path class="st4" d="M333.5,77.3c0,1.8-1.2,2.7-3,2.7h-4v-5.5h4C332.3,74.5,333.5,75.5,333.5,77.3L333.5,77.3z M335.5,88.2l-3.6-6.8
	c2-0.4,3.3-1.8,3.3-4c0-2.6-1.8-4.2-4.5-4.2h-5.8v15.1h1.6v-6.7h3.6l3.4,6.7H335.5L335.5,88.2z"/>
<path class="st4" d="M350.1,83.4h-5.6l2.8-8L350.1,83.4L350.1,83.4z M353.5,88.2l-5.5-15.1h-1.4l-5.5,15.1h1.7l1.2-3.4h6.6l1.2,3.4
	H353.5L353.5,88.2z"/>
<path class="st4" d="M369,80.5c0,1.8,0,4.1-1,5.2c-0.8,0.8-1.8,1.1-2.9,1.1h-3.3V74.5h3.3c1.2,0,2.2,0.3,2.9,1.1
	C369,76.7,369,78.6,369,80.5L369,80.5z M370.5,80.5c0-2.1,0.1-4.4-1.5-6c-0.9-0.9-2.2-1.4-3.8-1.4h-5.2v15.1h5.2
	c1.6,0,2.9-0.5,3.8-1.4C370.6,85.2,370.5,82.5,370.5,80.5L370.5,80.5z"/>
<path class="st4" d="M386.9,80.6c0,3.1-0.1,4.2-1,5.1c-0.7,0.7-1.6,1.1-2.6,1.1c-1,0-2-0.4-2.6-1.1c-0.9-1-1-2-1-5.1
	c0-3.2,0.1-4.2,1-5.2c0.7-0.7,1.6-1.1,2.6-1.1c1,0,2,0.4,2.6,1.1C386.8,76.4,386.9,77.5,386.9,80.6L386.9,80.6z M388.5,80.6
	c0-3.2,0-4.7-1.4-6.1c-1-1-2.4-1.6-3.9-1.6c-1.5,0-2.8,0.6-3.9,1.6c-1.4,1.4-1.4,2.9-1.4,6.1c0,3.2,0,4.7,1.4,6.1
	c1,1,2.4,1.6,3.9,1.6c1.5,0,2.8-0.6,3.9-1.6C388.5,85.3,388.5,83.8,388.5,80.6L388.5,80.6z"/>
<path class="st4" d="M405.1,77.3c0,1.8-1.2,2.7-3,2.7h-4v-5.5h4C403.8,74.5,405.1,75.5,405.1,77.3L405.1,77.3z M407,88.2l-3.6-6.8
	c1.9-0.4,3.3-1.8,3.3-4c0-2.6-1.8-4.2-4.5-4.2h-5.8v15.1h1.6v-6.7h3.6l3.4,6.7H407L407,88.2z"/>
<polygon class="st4" points="423.9,88.2 423.9,86.7 416.1,86.7 416.1,81.3 422.7,81.3 422.7,79.9 416.1,79.9 416.1,74.5 423.9,74.5 
	423.9,73.1 414.5,73.1 414.5,88.2 "/>
<path class="st4" d="M440.5,84c0-1.2-0.5-2.3-1.3-3c-0.6-0.6-1.3-0.9-2.7-1.1l-1.6-0.3c-0.8-0.1-1.6-0.4-2-0.8
	c-0.5-0.4-0.7-1-0.7-1.7c0-1.7,1.2-2.8,3.2-2.8c1.6,0,2.6,0.5,3.5,1.3l1-1c-1.3-1.2-2.6-1.6-4.5-1.6c-3,0-4.8,1.7-4.8,4.3
	c0,1.2,0.4,2.2,1.1,2.8c0.7,0.6,1.6,0.9,2.8,1.1l1.8,0.3c1.1,0.2,1.5,0.3,2,0.7c0.5,0.4,0.7,1.1,0.7,1.9c0,1.7-1.4,2.8-3.5,2.8
	c-1.7,0-2.9-0.4-4.1-1.6l-1.1,1.1c1.4,1.4,2.9,2,5.2,2C438.4,88.3,440.5,86.7,440.5,84L440.5,84z"/>
<polygon class="st2" points="149.3,83.1 166.9,83.1 166.9,87.4 155.8,87.4 "/>
<polygon class="st0" points="135.6,73.8 166.9,73.8 166.9,80 144.7,80 "/>
<polygon class="st2" points="464.8,83.1 447.2,83.1 447.2,87.4 458.4,87.4 "/>
<polygon class="st0" points="478.5,73.8 447.2,73.8 447.2,80 469.4,80 "/>
<polygon class="st3" points="293,62.5 304.9,4.6 339.2,4.6 336.3,18.6 317.2,18.6 315.7,26 327.5,26 324.6,39.9 312.8,39.9 
	308.1,62.5 "/>
<path class="st3" d="M349.5,49.3c2.6,0,4.3-1.4,4.8-4.1l4.8-23.4c0.5-2.6-0.5-4-3.1-4c-2.6,0-4.2,1.3-4.7,4l-4.8,23.4
	C345.9,47.9,347,49.3,349.5,49.3L349.5,49.3z M331.3,46.7l5.4-26.1c1.1-5.4,3.8-9.6,8-12.6c3.9-2.8,8.6-4.2,14.3-4.2
	c5.5,0,9.7,1.4,12.5,4.2c3.1,3,4,7.2,2.9,12.6L369,46.7c-1.1,5.5-3.8,9.7-8,12.7c-4,2.7-8.7,4-14.3,4c-5.6,0-9.8-1.3-12.6-4
	C331.1,56.4,330.1,52.2,331.3,46.7L331.3,46.7z"/>
<path class="st3" d="M392.6,18.6l-2,9.8h3.8c3.5,0,5.5-1.6,6.2-4.9c0.7-3.3-0.7-5-4.1-5H392.6L392.6,18.6z M388.1,40.2l-4.6,22.3
	h-14.9l12-57.9H400c5.3,0,9.5,1.3,12.4,3.9c3.2,2.8,4.3,6.9,3.2,12.1l-0.6,2.7c-1.4,6.9-5.5,11.8-12.3,14.8l7.5,24.5h-16.3
	L388.1,40.2L388.1,40.2z"/>
<polygon class="st3" points="457.6,4.6 454.8,18.6 443.3,18.6 434.2,62.5 419.4,62.5 428.5,18.6 417.1,18.6 419.9,4.6 "/>
<polygon class="st3" points="497,4.6 494.1,18.6 472.6,18.6 471.1,26 482.8,26 480,39.9 468.2,39.9 466.4,48.2 488,48.2 485,62.5 
	448.6,62.5 460.5,4.6 "/>
<path class="st3" d="M156.4,18.6c-2.6,0-4.1,1.4-4.7,4.1l-4.5,21.5c-0.6,2.7,0.5,4,3,4h3.9l3.4-16.5h14.5l-6.4,30.8h-18.3
	c-5.5,0-9.7-1.4-12.5-4.3c-3-3-3.9-7.3-2.8-12.7l5-24.2c1.1-5.4,3.8-9.6,8-12.6c3.9-2.7,8.7-4.1,14.3-4.1h17.1l-2.9,14H156.4
	L156.4,18.6z"/>
<polygon class="st3" points="217.2,4.6 214.3,18.6 192.8,18.6 191.3,26 203.1,26 200.2,39.9 188.4,39.9 186.7,48.2 208.2,48.2 
	205.3,62.5 168.8,62.5 180.8,4.6 "/>
<path class="st3" d="M231.8,18.6l-2,9.8h3.8c3.5,0,5.5-1.6,6.2-4.9c0.7-3.3-0.7-5-4.1-5H231.8L231.8,18.6z M227.3,40.2l-4.6,22.3
	h-14.9l12-57.9h19.4c5.3,0,9.5,1.3,12.4,3.9c3.2,2.8,4.3,6.9,3.2,12.1l-0.6,2.7c-1.4,6.9-5.5,11.8-12.3,14.8l7.5,24.5h-16.3
	L227.3,40.2L227.3,40.2z"/>
<path class="st3" d="M279.8,20.5L272,42.4h6.6L279.8,20.5L279.8,20.5z M293,4.6l-1.5,57.9h-14.5l0.5-5.7h-10.5l-1.8,5.7h-14.3
	l22.4-57.9H293L293,4.6z"/>
<path class="st0" d="M54.2,0c0.4,0,0.7,0,1,0l56,0.1C110.4,1.3,94,23.7,71.5,24c-0.1,0-0.3,0-0.4,0l-15.9-0.1c-0.1,0-0.3,0-0.4,0
	c-3.7,0.1-7.1,0.6-10.3,1.7c-3.3,1.1-6.2,2.7-8.6,4.6c-2.5,2-4.4,4.3-5.8,7.1c-1.4,2.7-2.1,5.7-2.1,8.9c0,3.3,0.7,6.3,2,9
	c1.4,2.7,3.3,5,5.6,6.9c2.4,1.9,5.2,3.4,8.6,4.5c3.3,1,7,1.6,10.9,1.6l32.9,0.1l0-33.7c1.4,0.3,28.5,6.1,28.5,32c0,0.4,0,8.4,0,10.2
	c0,6.1-3.5,14.9-15.7,15.1C80.3,92,56.4,92,55.2,91.9c-8,0-15.3-1.2-22.1-3.6c-6.7-2.4-12.6-5.7-17.5-9.9
	c-4.9-4.2-8.7-9.1-11.5-14.9C1.4,57.8,0,51.6,0,44.9c0-6.6,1.4-12.7,4.1-18.2s6.6-10.3,11.5-14.3c4.9-4,10.7-7.1,17.5-9.2
	C39.5,1.1,46.6,0.1,54.2,0L54.2,0z"/>
<path class="st1" d="M55.2,91.9c25.5-1,27-13.5,26.9-23.6l6,0l0-33.7c1.4,0.3,28.5,6.1,28.5,32c0,0.4,0,8.4,0,10.2
	c0,6.1-3.5,14.9-15.7,15.1C80.3,92,56.4,92,55.2,91.9L55.2,91.9z"/>
<path class="st0" d="M88.1,68.4l0-33.7c1.4,0.3,28.5,6.1,28.5,32c0,0.4,0,8.4,0,10.2c0,6.1-3.5,14.9-15.7,15.1
	C80.3,92,56.4,92,55.2,91.9C86.1,90.8,88.1,81.2,88.1,68.4L88.1,68.4z"/>
<path class="st4" d="M184.2,82.7v-2.4h-5.3v1.4h3.7v1.1c0,1.2-0.2,2-0.9,2.7c-0.7,0.8-1.8,1.3-2.8,1.3c-1,0-2-0.4-2.6-1
	c-1-1-1.1-2-1.1-5.2c0-3.2,0.1-4.2,1.1-5.2c0.7-0.7,1.6-1.1,2.6-1.1c1.9,0,3.2,1.2,3.7,3.1h1.6c-0.5-2.6-2.4-4.5-5.3-4.5
	c-1.5,0-2.8,0.6-3.9,1.6c-1.4,1.4-1.4,2.9-1.4,6.1c0,3.2,0,4.7,1.4,6.1c1,1,2.4,1.6,3.9,1.6c1.5,0,2.9-0.6,4-1.7
	C183.9,85.6,184.2,84.4,184.2,82.7L184.2,82.7z"/>
<path class="st4" d="M200.8,77.3c0,1.8-1.2,2.7-3,2.7h-4v-5.5h4C199.6,74.5,200.8,75.5,200.8,77.3L200.8,77.3z M202.7,88.2l-3.6-6.8
	c2-0.4,3.3-1.8,3.3-4c0-2.6-1.8-4.2-4.5-4.2h-5.8v15.1h1.6v-6.7h3.6l3.4,6.7H202.7L202.7,88.2z"/>
<path class="st4" d="M220.3,83.2V73.1h-1.6v9.9c0,2.3-1.4,3.8-3.7,3.8c-2.2,0-3.6-1.5-3.6-3.8v-9.9h-1.6v10.1c0,3,2.2,5.1,5.2,5.1
	C218.1,88.3,220.3,86.2,220.3,83.2L220.3,83.2z"/>
<path class="st4" d="M237.3,77.5c0,2-1.3,3-3.2,3h-3.9v-6h3.9C236,74.5,237.3,75.5,237.3,77.5L237.3,77.5z M238.9,77.5
	c0-2.7-1.9-4.4-4.6-4.4h-5.6v15.1h1.6V82h4C237,82,238.9,80.2,238.9,77.5L238.9,77.5z"/>
<path class="st4" d="M254.5,80.6c0,3.1-0.1,4.2-1,5.1c-0.7,0.7-1.6,1.1-2.6,1.1s-2-0.4-2.6-1.1c-0.9-1-1-2-1-5.1
	c0-3.2,0.1-4.2,1-5.2c0.7-0.7,1.6-1.1,2.6-1.1s2,0.4,2.6,1.1C254.4,76.4,254.5,77.5,254.5,80.6L254.5,80.6z M256.1,80.6
	c0-3.2,0-4.7-1.4-6.1c-1-1-2.4-1.6-3.9-1.6c-1.5,0-2.8,0.6-3.9,1.6c-1.4,1.4-1.4,2.9-1.4,6.1c0,3.2,0,4.7,1.4,6.1
	c1,1,2.4,1.6,3.9,1.6c1.5,0,2.8-0.6,3.9-1.6C256.1,85.3,256.1,83.8,256.1,80.6L256.1,80.6z"/>
<path class="st4" d="M273.2,84c0-1.2-0.4-2.3-1.2-3c-0.7-0.6-1.3-0.9-2.7-1.1l-1.7-0.3c-0.8-0.1-1.6-0.4-2-0.8
	c-0.5-0.4-0.7-1-0.7-1.7c0-1.7,1.2-2.8,3.2-2.8c1.6,0,2.6,0.5,3.5,1.3l1-1c-1.3-1.2-2.6-1.6-4.5-1.6c-3,0-4.8,1.7-4.8,4.3
	c0,1.2,0.4,2.2,1.1,2.8c0.7,0.6,1.6,0.9,2.8,1.1l1.8,0.3c1.1,0.2,1.5,0.3,2,0.7s0.7,1.1,0.7,1.9c0,1.7-1.4,2.8-3.6,2.8
	c-1.7,0-2.9-0.4-4.1-1.6l-1.1,1.1c1.4,1.4,2.9,2,5.2,2C271.1,88.3,273.2,86.7,273.2,84L273.2,84z"/>
<path class="st4" d="M300.3,82.7v-2.4H295v1.4h3.7v1.1c0,1.2-0.3,2-0.9,2.7c-0.7,0.8-1.8,1.3-2.9,1.3c-1,0-2-0.4-2.6-1
	c-1-1-1-2-1-5.2c0-3.2,0.1-4.2,1-5.2c0.7-0.7,1.6-1.1,2.6-1.1c1.9,0,3.2,1.2,3.7,3.1h1.6c-0.5-2.6-2.4-4.5-5.3-4.5
	c-1.5,0-2.8,0.6-3.9,1.6c-1.4,1.4-1.4,2.9-1.4,6.1c0,3.2,0,4.7,1.4,6.1c1,1,2.4,1.6,3.9,1.6c1.5,0,2.9-0.6,4-1.7
	C300,85.6,300.3,84.4,300.3,82.7L300.3,82.7z"/>
<polygon class="st4" points="317.6,88.2 317.6,86.7 309.9,86.7 309.9,81.3 316.5,81.3 316.5,79.9 309.9,79.9 309.9,74.5 317.6,74.5 
	317.6,73.1 308.3,73.1 308.3,88.2 "/>
<path class="st4" d="M333.5,77.3c0,1.8-1.2,2.7-3,2.7h-4v-5.5h4C332.3,74.5,333.5,75.5,333.5,77.3L333.5,77.3z M335.5,88.2l-3.6-6.8
	c2-0.4,3.3-1.8,3.3-4c0-2.6-1.8-4.2-4.5-4.2h-5.8v15.1h1.6v-6.7h3.6l3.4,6.7H335.5L335.5,88.2z"/>
<path class="st4" d="M350.1,83.4h-5.6l2.8-8L350.1,83.4L350.1,83.4z M353.5,88.2l-5.5-15.1h-1.4l-5.5,15.1h1.7l1.2-3.4h6.6l1.2,3.4
	H353.5L353.5,88.2z"/>
<path class="st4" d="M369,80.5c0,1.8,0,4.1-1,5.2c-0.8,0.8-1.8,1.1-2.9,1.1h-3.3V74.5h3.3c1.2,0,2.2,0.3,2.9,1.1
	C369,76.7,369,78.6,369,80.5L369,80.5z M370.5,80.5c0-2.1,0.1-4.4-1.5-6c-0.9-0.9-2.2-1.4-3.8-1.4h-5.2v15.1h5.2
	c1.6,0,2.9-0.5,3.8-1.4C370.6,85.2,370.5,82.5,370.5,80.5L370.5,80.5z"/>
<path class="st4" d="M386.9,80.6c0,3.1-0.1,4.2-1,5.1c-0.7,0.7-1.6,1.1-2.6,1.1c-1,0-2-0.4-2.6-1.1c-0.9-1-1-2-1-5.1
	c0-3.2,0.1-4.2,1-5.2c0.7-0.7,1.6-1.1,2.6-1.1c1,0,2,0.4,2.6,1.1C386.8,76.4,386.9,77.5,386.9,80.6L386.9,80.6z M388.5,80.6
	c0-3.2,0-4.7-1.4-6.1c-1-1-2.4-1.6-3.9-1.6c-1.5,0-2.8,0.6-3.9,1.6c-1.4,1.4-1.4,2.9-1.4,6.1c0,3.2,0,4.7,1.4,6.1
	c1,1,2.4,1.6,3.9,1.6c1.5,0,2.8-0.6,3.9-1.6C388.5,85.3,388.5,83.8,388.5,80.6L388.5,80.6z"/>
<path class="st4" d="M405.1,77.3c0,1.8-1.2,2.7-3,2.7h-4v-5.5h4C403.8,74.5,405.1,75.5,405.1,77.3L405.1,77.3z M407,88.2l-3.6-6.8
	c1.9-0.4,3.3-1.8,3.3-4c0-2.6-1.8-4.2-4.5-4.2h-5.8v15.1h1.6v-6.7h3.6l3.4,6.7H407L407,88.2z"/>
<polygon class="st4" points="423.9,88.2 423.9,86.7 416.1,86.7 416.1,81.3 422.7,81.3 422.7,79.9 416.1,79.9 416.1,74.5 423.9,74.5 
	423.9,73.1 414.5,73.1 414.5,88.2 "/>
<path class="st4" d="M440.5,84c0-1.2-0.5-2.3-1.3-3c-0.6-0.6-1.3-0.9-2.7-1.1l-1.6-0.3c-0.8-0.1-1.6-0.4-2-0.8
	c-0.5-0.4-0.7-1-0.7-1.7c0-1.7,1.2-2.8,3.2-2.8c1.6,0,2.6,0.5,3.5,1.3l1-1c-1.3-1.2-2.6-1.6-4.5-1.6c-3,0-4.8,1.7-4.8,4.3
	c0,1.2,0.4,2.2,1.1,2.8c0.7,0.6,1.6,0.9,2.8,1.1l1.8,0.3c1.1,0.2,1.5,0.3,2,0.7c0.5,0.4,0.7,1.1,0.7,1.9c0,1.7-1.4,2.8-3.5,2.8
	c-1.7,0-2.9-0.4-4.1-1.6l-1.1,1.1c1.4,1.4,2.9,2,5.2,2C438.4,88.3,440.5,86.7,440.5,84L440.5,84z"/>
<polygon class="st2" points="149.3,83.1 166.9,83.1 166.9,87.4 155.8,87.4 "/>
<polygon class="st0" points="135.6,73.8 166.9,73.8 166.9,80 144.7,80 "/>
<polygon class="st2" points="464.8,83.1 447.2,83.1 447.2,87.4 458.4,87.4 "/>
<polygon class="st0" points="478.5,73.8 447.2,73.8 447.2,80 469.4,80 "/>
<polygon class="st3" points="293,62.5 304.9,4.6 339.2,4.6 336.3,18.6 317.2,18.6 315.7,26 327.5,26 324.6,39.9 312.8,39.9 
	308.1,62.5 "/>
<path class="st3" d="M349.5,49.3c2.6,0,4.3-1.4,4.8-4.1l4.8-23.4c0.5-2.6-0.5-4-3.1-4c-2.6,0-4.2,1.3-4.7,4l-4.8,23.4
	C345.9,47.9,347,49.3,349.5,49.3L349.5,49.3z M331.3,46.7l5.4-26.1c1.1-5.4,3.8-9.6,8-12.6c3.9-2.8,8.6-4.2,14.3-4.2
	c5.5,0,9.7,1.4,12.5,4.2c3.1,3,4,7.2,2.9,12.6L369,46.7c-1.1,5.5-3.8,9.7-8,12.7c-4,2.7-8.7,4-14.3,4c-5.6,0-9.8-1.3-12.6-4
	C331.1,56.4,330.1,52.2,331.3,46.7L331.3,46.7z"/>
<path class="st3" d="M392.6,18.6l-2,9.8h3.8c3.5,0,5.5-1.6,6.2-4.9c0.7-3.3-0.7-5-4.1-5H392.6L392.6,18.6z M388.1,40.2l-4.6,22.3
	h-14.9l12-57.9H400c5.3,0,9.5,1.3,12.4,3.9c3.2,2.8,4.3,6.9,3.2,12.1l-0.6,2.7c-1.4,6.9-5.5,11.8-12.3,14.8l7.5,24.5h-16.3
	L388.1,40.2L388.1,40.2z"/>
<polygon class="st3" points="457.6,4.6 454.8,18.6 443.3,18.6 434.2,62.5 419.4,62.5 428.5,18.6 417.1,18.6 419.9,4.6 "/>
<polygon class="st3" points="497,4.6 494.1,18.6 472.6,18.6 471.1,26 482.8,26 480,39.9 468.2,39.9 466.4,48.2 488,48.2 485,62.5 
	448.6,62.5 460.5,4.6 "/>
<path class="st3" d="M156.4,18.6c-2.6,0-4.1,1.4-4.7,4.1l-4.5,21.5c-0.6,2.7,0.5,4,3,4h3.9l3.4-16.5h14.5l-6.4,30.8h-18.3
	c-5.5,0-9.7-1.4-12.5-4.3c-3-3-3.9-7.3-2.8-12.7l5-24.2c1.1-5.4,3.8-9.6,8-12.6c3.9-2.7,8.7-4.1,14.3-4.1h17.1l-2.9,14H156.4
	L156.4,18.6z"/>
<polygon class="st3" points="217.2,4.6 214.3,18.6 192.8,18.6 191.3,26 203.1,26 200.2,39.9 188.4,39.9 186.7,48.2 208.2,48.2 
	205.3,62.5 168.8,62.5 180.8,4.6 "/>
<path class="st3" d="M231.8,18.6l-2,9.8h3.8c3.5,0,5.5-1.6,6.2-4.9c0.7-3.3-0.7-5-4.1-5H231.8L231.8,18.6z M227.3,40.2l-4.6,22.3
	h-14.9l12-57.9h19.4c5.3,0,9.5,1.3,12.4,3.9c3.2,2.8,4.3,6.9,3.2,12.1l-0.6,2.7c-1.4,6.9-5.5,11.8-12.3,14.8l7.5,24.5h-16.3
	L227.3,40.2L227.3,40.2z"/>
<path class="st3" d="M279.8,20.5L272,42.4h6.6L279.8,20.5L279.8,20.5z M293,4.6l-1.5,57.9h-14.5l0.5-5.7h-10.5l-1.8,5.7h-14.3
	l22.4-57.9H293L293,4.6z"/>
<path class="st0" d="M54.2,0c0.4,0,0.7,0,1,0l56,0.1C110.4,1.3,94,23.7,71.5,24c-0.1,0-0.3,0-0.4,0l-15.9-0.1c-0.1,0-0.3,0-0.4,0
	c-3.7,0.1-7.1,0.6-10.3,1.7c-3.3,1.1-6.2,2.7-8.6,4.6c-2.5,2-4.4,4.3-5.8,7.1c-1.4,2.7-2.1,5.7-2.1,8.9c0,3.3,0.7,6.3,2,9
	c1.4,2.7,3.3,5,5.6,6.9c2.4,1.9,5.2,3.4,8.6,4.5c3.3,1,7,1.6,10.9,1.6l32.9,0.1l0-33.7c1.4,0.3,28.5,6.1,28.5,32c0,0.4,0,8.4,0,10.2
	c0,6.1-3.5,14.9-15.7,15.1C80.3,92,56.4,92,55.2,91.9c-8,0-15.3-1.2-22.1-3.6c-6.7-2.4-12.6-5.7-17.5-9.9
	c-4.9-4.2-8.7-9.1-11.5-14.9C1.4,57.8,0,51.6,0,44.9c0-6.6,1.4-12.7,4.1-18.2s6.6-10.3,11.5-14.3c4.9-4,10.7-7.1,17.5-9.2
	C39.5,1.1,46.6,0.1,54.2,0L54.2,0z"/>
<path class="st1" d="M55.2,91.9c25.5-1,27-13.5,26.9-23.6l6,0l0-33.7c1.4,0.3,28.5,6.1,28.5,32c0,0.4,0,8.4,0,10.2
	c0,6.1-3.5,14.9-15.7,15.1C80.3,92,56.4,92,55.2,91.9L55.2,91.9z"/>
<path class="st0" d="M88.1,68.4l0-33.7c1.4,0.3,28.5,6.1,28.5,32c0,0.4,0,8.4,0,10.2c0,6.1-3.5,14.9-15.7,15.1
	C80.3,92,56.4,92,55.2,91.9C86.1,90.8,88.1,81.2,88.1,68.4L88.1,68.4z"/>
<path class="st4" d="M184.2,82.7v-2.4h-5.3v1.4h3.7v1.1c0,1.2-0.2,2-0.9,2.7c-0.7,0.8-1.8,1.3-2.8,1.3c-1,0-2-0.4-2.6-1
	c-1-1-1.1-2-1.1-5.2c0-3.2,0.1-4.2,1.1-5.2c0.7-0.7,1.6-1.1,2.6-1.1c1.9,0,3.2,1.2,3.7,3.1h1.6c-0.5-2.6-2.4-4.5-5.3-4.5
	c-1.5,0-2.8,0.6-3.9,1.6c-1.4,1.4-1.4,2.9-1.4,6.1c0,3.2,0,4.7,1.4,6.1c1,1,2.4,1.6,3.9,1.6c1.5,0,2.9-0.6,4-1.7
	C183.9,85.6,184.2,84.4,184.2,82.7L184.2,82.7z"/>
<path class="st4" d="M200.8,77.3c0,1.8-1.2,2.7-3,2.7h-4v-5.5h4C199.6,74.5,200.8,75.5,200.8,77.3L200.8,77.3z M202.7,88.2l-3.6-6.8
	c2-0.4,3.3-1.8,3.3-4c0-2.6-1.8-4.2-4.5-4.2h-5.8v15.1h1.6v-6.7h3.6l3.4,6.7H202.7L202.7,88.2z"/>
<path class="st4" d="M220.3,83.2V73.1h-1.6v9.9c0,2.3-1.4,3.8-3.7,3.8c-2.2,0-3.6-1.5-3.6-3.8v-9.9h-1.6v10.1c0,3,2.2,5.1,5.2,5.1
	C218.1,88.3,220.3,86.2,220.3,83.2L220.3,83.2z"/>
<path class="st4" d="M237.3,77.5c0,2-1.3,3-3.2,3h-3.9v-6h3.9C236,74.5,237.3,75.5,237.3,77.5L237.3,77.5z M238.9,77.5
	c0-2.7-1.9-4.4-4.6-4.4h-5.6v15.1h1.6V82h4C237,82,238.9,80.2,238.9,77.5L238.9,77.5z"/>
<path class="st4" d="M254.5,80.6c0,3.1-0.1,4.2-1,5.1c-0.7,0.7-1.6,1.1-2.6,1.1s-2-0.4-2.6-1.1c-0.9-1-1-2-1-5.1
	c0-3.2,0.1-4.2,1-5.2c0.7-0.7,1.6-1.1,2.6-1.1s2,0.4,2.6,1.1C254.4,76.4,254.5,77.5,254.5,80.6L254.5,80.6z M256.1,80.6
	c0-3.2,0-4.7-1.4-6.1c-1-1-2.4-1.6-3.9-1.6c-1.5,0-2.8,0.6-3.9,1.6c-1.4,1.4-1.4,2.9-1.4,6.1c0,3.2,0,4.7,1.4,6.1
	c1,1,2.4,1.6,3.9,1.6c1.5,0,2.8-0.6,3.9-1.6C256.1,85.3,256.1,83.8,256.1,80.6L256.1,80.6z"/>
<path class="st4" d="M273.2,84c0-1.2-0.4-2.3-1.2-3c-0.7-0.6-1.3-0.9-2.7-1.1l-1.7-0.3c-0.8-0.1-1.6-0.4-2-0.8
	c-0.5-0.4-0.7-1-0.7-1.7c0-1.7,1.2-2.8,3.2-2.8c1.6,0,2.6,0.5,3.5,1.3l1-1c-1.3-1.2-2.6-1.6-4.5-1.6c-3,0-4.8,1.7-4.8,4.3
	c0,1.2,0.4,2.2,1.1,2.8c0.7,0.6,1.6,0.9,2.8,1.1l1.8,0.3c1.1,0.2,1.5,0.3,2,0.7s0.7,1.1,0.7,1.9c0,1.7-1.4,2.8-3.6,2.8
	c-1.7,0-2.9-0.4-4.1-1.6l-1.1,1.1c1.4,1.4,2.9,2,5.2,2C271.1,88.3,273.2,86.7,273.2,84L273.2,84z"/>
<path class="st4" d="M300.3,82.7v-2.4H295v1.4h3.7v1.1c0,1.2-0.3,2-0.9,2.7c-0.7,0.8-1.8,1.3-2.9,1.3c-1,0-2-0.4-2.6-1
	c-1-1-1-2-1-5.2c0-3.2,0.1-4.2,1-5.2c0.7-0.7,1.6-1.1,2.6-1.1c1.9,0,3.2,1.2,3.7,3.1h1.6c-0.5-2.6-2.4-4.5-5.3-4.5
	c-1.5,0-2.8,0.6-3.9,1.6c-1.4,1.4-1.4,2.9-1.4,6.1c0,3.2,0,4.7,1.4,6.1c1,1,2.4,1.6,3.9,1.6c1.5,0,2.9-0.6,4-1.7
	C300,85.6,300.3,84.4,300.3,82.7L300.3,82.7z"/>
<polygon class="st4" points="317.6,88.2 317.6,86.7 309.9,86.7 309.9,81.3 316.5,81.3 316.5,79.9 309.9,79.9 309.9,74.5 317.6,74.5 
	317.6,73.1 308.3,73.1 308.3,88.2 "/>
<path class="st4" d="M333.5,77.3c0,1.8-1.2,2.7-3,2.7h-4v-5.5h4C332.3,74.5,333.5,75.5,333.5,77.3L333.5,77.3z M335.5,88.2l-3.6-6.8
	c2-0.4,3.3-1.8,3.3-4c0-2.6-1.8-4.2-4.5-4.2h-5.8v15.1h1.6v-6.7h3.6l3.4,6.7H335.5L335.5,88.2z"/>
<path class="st4" d="M350.1,83.4h-5.6l2.8-8L350.1,83.4L350.1,83.4z M353.5,88.2l-5.5-15.1h-1.4l-5.5,15.1h1.7l1.2-3.4h6.6l1.2,3.4
	H353.5L353.5,88.2z"/>
<path class="st4" d="M369,80.5c0,1.8,0,4.1-1,5.2c-0.8,0.8-1.8,1.1-2.9,1.1h-3.3V74.5h3.3c1.2,0,2.2,0.3,2.9,1.1
	C369,76.7,369,78.6,369,80.5L369,80.5z M370.5,80.5c0-2.1,0.1-4.4-1.5-6c-0.9-0.9-2.2-1.4-3.8-1.4h-5.2v15.1h5.2
	c1.6,0,2.9-0.5,3.8-1.4C370.6,85.2,370.5,82.5,370.5,80.5L370.5,80.5z"/>
<path class="st4" d="M386.9,80.6c0,3.1-0.1,4.2-1,5.1c-0.7,0.7-1.6,1.1-2.6,1.1c-1,0-2-0.4-2.6-1.1c-0.9-1-1-2-1-5.1
	c0-3.2,0.1-4.2,1-5.2c0.7-0.7,1.6-1.1,2.6-1.1c1,0,2,0.4,2.6,1.1C386.8,76.4,386.9,77.5,386.9,80.6L386.9,80.6z M388.5,80.6
	c0-3.2,0-4.7-1.4-6.1c-1-1-2.4-1.6-3.9-1.6c-1.5,0-2.8,0.6-3.9,1.6c-1.4,1.4-1.4,2.9-1.4,6.1c0,3.2,0,4.7,1.4,6.1
	c1,1,2.4,1.6,3.9,1.6c1.5,0,2.8-0.6,3.9-1.6C388.5,85.3,388.5,83.8,388.5,80.6L388.5,80.6z"/>
<path class="st4" d="M405.1,77.3c0,1.8-1.2,2.7-3,2.7h-4v-5.5h4C403.8,74.5,405.1,75.5,405.1,77.3L405.1,77.3z M407,88.2l-3.6-6.8
	c1.9-0.4,3.3-1.8,3.3-4c0-2.6-1.8-4.2-4.5-4.2h-5.8v15.1h1.6v-6.7h3.6l3.4,6.7H407L407,88.2z"/>
<polygon class="st4" points="423.9,88.2 423.9,86.7 416.1,86.7 416.1,81.3 422.7,81.3 422.7,79.9 416.1,79.9 416.1,74.5 423.9,74.5 
	423.9,73.1 414.5,73.1 414.5,88.2 "/>
<path class="st4" d="M440.5,84c0-1.2-0.5-2.3-1.3-3c-0.6-0.6-1.3-0.9-2.7-1.1l-1.6-0.3c-0.8-0.1-1.6-0.4-2-0.8
	c-0.5-0.4-0.7-1-0.7-1.7c0-1.7,1.2-2.8,3.2-2.8c1.6,0,2.6,0.5,3.5,1.3l1-1c-1.3-1.2-2.6-1.6-4.5-1.6c-3,0-4.8,1.7-4.8,4.3
	c0,1.2,0.4,2.2,1.1,2.8c0.7,0.6,1.6,0.9,2.8,1.1l1.8,0.3c1.1,0.2,1.5,0.3,2,0.7c0.5,0.4,0.7,1.1,0.7,1.9c0,1.7-1.4,2.8-3.5,2.8
	c-1.7,0-2.9-0.4-4.1-1.6l-1.1,1.1c1.4,1.4,2.9,2,5.2,2C438.4,88.3,440.5,86.7,440.5,84L440.5,84z"/>
<polygon class="st2" points="149.3,83.1 166.9,83.1 166.9,87.4 155.8,87.4 "/>
<polygon class="st0" points="135.6,73.8 166.9,73.8 166.9,80 144.7,80 "/>
<polygon class="st2" points="464.8,83.1 447.2,83.1 447.2,87.4 458.4,87.4 "/>
<polygon class="st0" points="478.5,73.8 447.2,73.8 447.2,80 469.4,80 "/>
<polygon class="st3" points="293,62.5 304.9,4.6 339.2,4.6 336.3,18.6 317.2,18.6 315.7,26 327.5,26 324.6,39.9 312.8,39.9 
	308.1,62.5 "/>
<path class="st3" d="M349.5,49.3c2.6,0,4.3-1.4,4.8-4.1l4.8-23.4c0.5-2.6-0.5-4-3.1-4c-2.6,0-4.2,1.3-4.7,4l-4.8,23.4
	C345.9,47.9,347,49.3,349.5,49.3L349.5,49.3z M331.3,46.7l5.4-26.1c1.1-5.4,3.8-9.6,8-12.6c3.9-2.8,8.6-4.2,14.3-4.2
	c5.5,0,9.7,1.4,12.5,4.2c3.1,3,4,7.2,2.9,12.6L369,46.7c-1.1,5.5-3.8,9.7-8,12.7c-4,2.7-8.7,4-14.3,4c-5.6,0-9.8-1.3-12.6-4
	C331.1,56.4,330.1,52.2,331.3,46.7L331.3,46.7z"/>
<path class="st3" d="M392.6,18.6l-2,9.8h3.8c3.5,0,5.5-1.6,6.2-4.9c0.7-3.3-0.7-5-4.1-5H392.6L392.6,18.6z M388.1,40.2l-4.6,22.3
	h-14.9l12-57.9H400c5.3,0,9.5,1.3,12.4,3.9c3.2,2.8,4.3,6.9,3.2,12.1l-0.6,2.7c-1.4,6.9-5.5,11.8-12.3,14.8l7.5,24.5h-16.3
	L388.1,40.2L388.1,40.2z"/>
<polygon class="st3" points="457.6,4.6 454.8,18.6 443.3,18.6 434.2,62.5 419.4,62.5 428.5,18.6 417.1,18.6 419.9,4.6 "/>
<polygon class="st3" points="497,4.6 494.1,18.6 472.6,18.6 471.1,26 482.8,26 480,39.9 468.2,39.9 466.4,48.2 488,48.2 485,62.5 
	448.6,62.5 460.5,4.6 "/>
<path class="st3" d="M156.4,18.6c-2.6,0-4.1,1.4-4.7,4.1l-4.5,21.5c-0.6,2.7,0.5,4,3,4h3.9l3.4-16.5h14.5l-6.4,30.8h-18.3
	c-5.5,0-9.7-1.4-12.5-4.3c-3-3-3.9-7.3-2.8-12.7l5-24.2c1.1-5.4,3.8-9.6,8-12.6c3.9-2.7,8.7-4.1,14.3-4.1h17.1l-2.9,14H156.4
	L156.4,18.6z"/>
<polygon class="st3" points="217.2,4.6 214.3,18.6 192.8,18.6 191.3,26 203.1,26 200.2,39.9 188.4,39.9 186.7,48.2 208.2,48.2 
	205.3,62.5 168.8,62.5 180.8,4.6 "/>
<path class="st3" d="M231.8,18.6l-2,9.8h3.8c3.5,0,5.5-1.6,6.2-4.9c0.7-3.3-0.7-5-4.1-5H231.8L231.8,18.6z M227.3,40.2l-4.6,22.3
	h-14.9l12-57.9h19.4c5.3,0,9.5,1.3,12.4,3.9c3.2,2.8,4.3,6.9,3.2,12.1l-0.6,2.7c-1.4,6.9-5.5,11.8-12.3,14.8l7.5,24.5h-16.3
	L227.3,40.2L227.3,40.2z"/>
<path class="st3" d="M279.8,20.5L272,42.4h6.6L279.8,20.5L279.8,20.5z M293,4.6l-1.5,57.9h-14.5l0.5-5.7h-10.5l-1.8,5.7h-14.3
	l22.4-57.9H293L293,4.6z"/>
</svg>
