<?xml version="1.0" encoding="utf-8"?>
<!-- Generator: Adobe Illustrator 25.2.3, SVG Export Plug-In . SVG Version: 6.00 Build 0)  -->
<svg version="1.1" id="Camada_1" xmlns="http://www.w3.org/2000/svg" xmlns:xlink="http://www.w3.org/1999/xlink" x="0px" y="0px"
	 viewBox="0 0 497 92.1" style="enable-background:new 0 0 497 92.1;" xml:space="preserve">
<style type="text/css">
	.st0{fill-rule:evenodd;clip-rule:evenodd;fill:#CF3034;}
	.st1{fill-rule:evenodd;clip-rule:evenodd;fill:#AA2C2E;}
	.st2{fill-rule:evenodd;clip-rule:evenodd;fill:#4B4B4D;}
	.st3{fill:#373435;}
	.st4{fill:#727376;}
</style>
<path class="st0" d="M54.2,0c0.4,0,0.7,0,1,0l56,0.1C110.4,1.3,94,23.7,71.5,24c-0.1,0-0.3,0-0.4,0l-15.9-0.1c-0.1,0-0.3,0-0.4,0
	c-3.7,0.1-7.1,0.6-10.3,1.7c-3.3,1.1-6.2,2.7-8.6,4.6c-2.5,2-4.4,4.3-5.8,7.1c-1.4,2.7-2.1,5.7-2.1,8.9c0,3.3,0.7,6.3,2,9
	c1.4,2.7,3.3,5,5.6,6.9c2.4,1.9,5.2,3.4,8.6,4.5c3.3,1,7,1.6,10.9,1.6l32.9,0.1l0-33.7c1.4,0.3,28.5,6.1,28.5,32c0,0.4,0,8.4,0,10.2
	c0,6.1-3.5,14.9-15.7,15.1C80.3,92,56.4,92,55.2,91.9c-8,0-15.3-1.2-22.1-3.6c-6.7-2.4-12.6-5.7-17.5-9.9
	c-4.9-4.2-8.7-9.1-11.5-14.9C1.4,57.8,0,51.6,0,44.9c0-6.6,1.4-12.7,4.1-18.2s6.6-10.3,11.5-14.3c4.9-4,10.7-7.1,17.5-9.2
	C39.5,1.1,46.6,0.1,54.2,0L54.2,0z"/>
<path class="st1" d="M55.2,91.9c25.5-1,27-13.5,26.9-23.6l6,0l0-33.7c1.4,0.3,28.5,6.1,28.5,32c0,0.4,0,8.4,0,10.2
	c0,6.1-3.5,14.9-15.7,15.1C80.3,92,56.4,92,55.2,91.9L55.2,91.9z"/>
<path class="st0" d="M88.1,68.4l0-33.7c1.4,0.3,28.5,6.1,28.5,32c0,0.4,0,8.4,0,10.2c0,6.1-3.5,14.9-15.7,15.1
	C80.3,92,56.4,92,55.2,91.9C86.1,90.8,88.1,81.2,88.1,68.4L88.1,68.4z"/>
<polygon class="st2" points="149.3,83.1 166.9,83.1 166.9,87.4 155.8,87.4 "/>
<polygon class="st0" points="135.6,73.8 166.9,73.8 166.9,80 144.7,80 "/>
<polygon class="st2" points="464.8,83.1 447.2,83.1 447.2,87.4 458.4,87.4 "/>
<polygon class="st0" points="478.5,73.8 447.2,73.8 447.2,80 469.4,80 "/>
<polygon class="st3" points="293,62.5 304.9,4.6 339.2,4.6 336.3,18.6 317.2,18.6 315.7,26 327.5,26 324.6,39.9 312.8,39.9 
	308.1,62.5 "/>
<path class="st3" d="M349.5,49.3c2.6,0,4.3-1.4,4.8-4.1l4.8-23.4c0.5-2.6-0.5-4-3.1-4c-2.6,0-4.2,1.3-4.7,4l-4.8,23.4
	C345.9,47.9,347,49.3,349.5,49.3L349.5,49.3z M331.3,46.7l5.4-26.1c1.1-5.4,3.8-9.6,8-12.6c3.9-2.8,8.6-4.2,14.3-4.2
	c5.5,0,9.7,1.4,12.5,4.2c3.1,3,4,7.2,2.9,12.6L369,46.7c-1.1,5.5-3.8,9.7-8,12.7c-4,2.7-8.7,4-14.3,4c-5.6,0-9.8-1.3-12.6-4
	C331.1,56.4,330.1,52.2,331.3,46.7L331.3,46.7z"/>
<path class="st3" d="M392.6,18.6l-2,9.8h3.8c3.5,0,5.5-1.6,6.2-4.9c0.7-3.3-0.7-5-4.1-5H392.6L392.6,18.6z M388.1,40.2l-4.6,22.3
	h-14.9l12-57.9H400c5.3,0,9.5,1.3,12.4,3.9c3.2,2.8,4.3,6.9,3.2,12.1l-0.6,2.7c-1.4,6.9-5.5,11.8-12.3,14.8l7.5,24.5h-16.3
	L388.1,40.2L388.1,40.2z"/>
<polygon class="st3" points="457.6,4.6 454.8,18.6 443.3,18.6 434.2,62.5 419.4,62.5 428.5,18.6 417.1,18.6 419.9,4.6 "/>
<polygon class="st3" points="497,4.6 494.1,18.6 472.6,18.6 471.1,26 482.8,26 480,39.9 468.2,39.9 466.4,48.2 488,48.2 485,62.5 
	448.6,62.5 460.5,4.6 "/>
<path class="st3" d="M156.4,18.6c-2.6,0-4.1,1.4-4.7,4.1l-4.5,21.5c-0.6,2.7,0.5,4,3,4h3.9l3.4-16.5h14.5l-6.4,30.8h-18.3
	c-5.5,0-9.7-1.4-12.5-4.3c-3-3-3.9-7.3-2.8-12.7l5-24.2c1.1-5.4,3.8-9.6,8-12.6c3.9-2.7,8.7-4.1,14.3-4.1h17.1l-2.9,14H156.4
	L156.4,18.6z"/>
<polygon class="st3" points="217.2,4.6 214.3,18.6 192.8,18.6 191.3,26 203.1,26 200.2,39.9 188.4,39.9 186.7,48.2 208.2,48.2 
	205.3,62.5 168.8,62.5 180.8,4.6 "/>
<path class="st3" d="M231.8,18.6l-2,9.8h3.8c3.5,0,5.5-1.6,6.2-4.9c0.7-3.3-0.7-5-4.1-5H231.8L231.8,18.6z M227.3,40.2l-4.6,22.3
	h-14.9l12-57.9h19.4c5.3,0,9.5,1.3,12.4,3.9c3.2,2.8,4.3,6.9,3.2,12.1l-0.6,2.7c-1.4,6.9-5.5,11.8-12.3,14.8l7.5,24.5h-16.3
	L227.3,40.2L227.3,40.2z"/>
<path class="st3" d="M279.8,20.5L272,42.4h6.6L279.8,20.5L279.8,20.5z M293,4.6l-1.5,57.9h-14.5l0.5-5.7h-10.5l-1.8,5.7h-14.3
	l22.4-57.9H293L293,4.6z"/>
<path class="st0" d="M54.2,0c0.4,0,0.7,0,1,0l56,0.1C110.4,1.3,94,23.7,71.5,24c-0.1,0-0.3,0-0.4,0l-15.9-0.1c-0.1,0-0.3,0-0.4,0
	c-3.7,0.1-7.1,0.6-10.3,1.7c-3.3,1.1-6.2,2.7-8.6,4.6c-2.5,2-4.4,4.3-5.8,7.1c-1.4,2.7-2.1,5.7-2.1,8.9c0,3.3,0.7,6.3,2,9
	c1.4,2.7,3.3,5,5.6,6.9c2.4,1.9,5.2,3.4,8.6,4.5c3.3,1,7,1.6,10.9,1.6l32.9,0.1l0-33.7c1.4,0.3,28.5,6.1,28.5,32c0,0.4,0,8.4,0,10.2
	c0,6.1-3.5,14.9-15.7,15.1C80.3,92,56.4,92,55.2,91.9c-8,0-15.3-1.2-22.1-3.6c-6.7-2.4-12.6-5.7-17.5-9.9
	c-4.9-4.2-8.7-9.1-11.5-14.9C1.4,57.8,0,51.6,0,44.9c0-6.6,1.4-12.7,4.1-18.2s6.6-10.3,11.5-14.3c4.9-4,10.7-7.1,17.5-9.2
	C39.5,1.1,46.6,0.1,54.2,0L54.2,0z"/>
<path class="st1" d="M55.2,91.9c25.5-1,27-13.5,26.9-23.6l6,0l0-33.7c1.4,0.3,28.5,6.1,28.5,32c0,0.4,0,8.4,0,10.2
	c0,6.1-3.5,14.9-15.7,15.1C80.3,92,56.4,92,55.2,91.9L55.2,91.9z"/>
<path class="st0" d="M88.1,68.4l0-33.7c1.4,0.3,28.5,6.1,28.5,32c0,0.4,0,8.4,0,10.2c0,6.1-3.5,14.9-15.7,15.1
	C80.3,92,56.4,92,55.2,91.9C86.1,90.8,88.1,81.2,88.1,68.4L88.1,68.4z"/>
<polygon class="st2" points="149.3,83.1 166.9,83.1 166.9,87.4 155.8,87.4 "/>
<polygon class="st0" points="135.6,73.8 166.9,73.8 166.9,80 144.7,80 "/>
<polygon class="st2" points="464.8,83.1 447.2,83.1 447.2,87.4 458.4,87.4 "/>
<polygon class="st0" points="478.5,73.8 447.2,73.8 447.2,80 469.4,80 "/>
<polygon class="st3" points="293,62.5 304.9,4.6 339.2,4.6 336.3,18.6 317.2,18.6 315.7,26 327.5,26 324.6,39.9 312.8,39.9 
	308.1,62.5 "/>
<path class="st3" d="M349.5,49.3c2.6,0,4.3-1.4,4.8-4.1l4.8-23.4c0.5-2.6-0.5-4-3.1-4c-2.6,0-4.2,1.3-4.7,4l-4.8,23.4
	C345.9,47.9,347,49.3,349.5,49.3L349.5,49.3z M331.3,46.7l5.4-26.1c1.1-5.4,3.8-9.6,8-12.6c3.9-2.8,8.6-4.2,14.3-4.2
	c5.5,0,9.7,1.4,12.5,4.2c3.1,3,4,7.2,2.9,12.6L369,46.7c-1.1,5.5-3.8,9.7-8,12.7c-4,2.7-8.7,4-14.3,4c-5.6,0-9.8-1.3-12.6-4
	C331.1,56.4,330.1,52.2,331.3,46.7L331.3,46.7z"/>
<path class="st3" d="M392.6,18.6l-2,9.8h3.8c3.5,0,5.5-1.6,6.2-4.9c0.7-3.3-0.7-5-4.1-5H392.6L392.6,18.6z M388.1,40.2l-4.6,22.3
	h-14.9l12-57.9H400c5.3,0,9.5,1.3,12.4,3.9c3.2,2.8,4.3,6.9,3.2,12.1l-0.6,2.7c-1.4,6.9-5.5,11.8-12.3,14.8l7.5,24.5h-16.3
	L388.1,40.2L388.1,40.2z"/>
<polygon class="st3" points="457.6,4.6 454.8,18.6 443.3,18.6 434.2,62.5 419.4,62.5 428.5,18.6 417.1,18.6 419.9,4.6 "/>
<polygon class="st3" points="497,4.6 494.1,18.6 472.6,18.6 471.1,26 482.8,26 480,39.9 468.2,39.9 466.4,48.2 488,48.2 485,62.5 
	448.6,62.5 460.5,4.6 "/>
<path class="st3" d="M156.4,18.6c-2.6,0-4.1,1.4-4.7,4.1l-4.5,21.5c-0.6,2.7,0.5,4,3,4h3.9l3.4-16.5h14.5l-6.4,30.8h-18.3
	c-5.5,0-9.7-1.4-12.5-4.3c-3-3-3.9-7.3-2.8-12.7l5-24.2c1.1-5.4,3.8-9.6,8-12.6c3.9-2.7,8.7-4.1,14.3-4.1h17.1l-2.9,14H156.4
	L156.4,18.6z"/>
<polygon class="st3" points="217.2,4.6 214.3,18.6 192.8,18.6 191.3,26 203.1,26 200.2,39.9 188.4,39.9 186.7,48.2 208.2,48.2 
	205.3,62.5 168.8,62.5 180.8,4.6 "/>
<path class="st3" d="M231.8,18.6l-2,9.8h3.8c3.5,0,5.5-1.6,6.2-4.9c0.7-3.3-0.7-5-4.1-5H231.8L231.8,18.6z M227.3,40.2l-4.6,22.3
	h-14.9l12-57.9h19.4c5.3,0,9.5,1.3,12.4,3.9c3.2,2.8,4.3,6.9,3.2,12.1l-0.6,2.7c-1.4,6.9-5.5,11.8-12.3,14.8l7.5,24.5h-16.3
	L227.3,40.2L227.3,40.2z"/>
<path class="st3" d="M279.8,20.5L272,42.4h6.6L279.8,20.5L279.8,20.5z M293,4.6l-1.5,57.9h-14.5l0.5-5.7h-10.5l-1.8,5.7h-14.3
	l22.4-57.9H293L293,4.6z"/>
<path class="st0" d="M54.2,0c0.4,0,0.7,0,1,0l56,0.1C110.4,1.3,94,23.7,71.5,24c-0.1,0-0.3,0-0.4,0l-15.9-0.1c-0.1,0-0.3,0-0.4,0
	c-3.7,0.1-7.1,0.6-10.3,1.7c-3.3,1.1-6.2,2.7-8.6,4.6c-2.5,2-4.4,4.3-5.8,7.1c-1.4,2.7-2.1,5.7-2.1,8.9c0,3.3,0.7,6.3,2,9
	c1.4,2.7,3.3,5,5.6,6.9c2.4,1.9,5.2,3.4,8.6,4.5c3.3,1,7,1.6,10.9,1.6l32.9,0.1l0-33.7c1.4,0.3,28.5,6.1,28.5,32c0,0.4,0,8.4,0,10.2
	c0,6.1-3.5,14.9-15.7,15.1C80.3,92,56.4,92,55.2,91.9c-8,0-15.3-1.2-22.1-3.6c-6.7-2.4-12.6-5.7-17.5-9.9
	c-4.9-4.2-8.7-9.1-11.5-14.9C1.4,57.8,0,51.6,0,44.9c0-6.6,1.4-12.7,4.1-18.2s6.6-10.3,11.5-14.3c4.9-4,10.7-7.1,17.5-9.2
	C39.5,1.1,46.6,0.1,54.2,0L54.2,0z"/>
<path class="st1" d="M55.2,91.9c25.5-1,27-13.5,26.9-23.6l6,0l0-33.7c1.4,0.3,28.5,6.1,28.5,32c0,0.4,0,8.4,0,10.2
	c0,6.1-3.5,14.9-15.7,15.1C80.3,92,56.4,92,55.2,91.9L55.2,91.9z"/>
<path class="st0" d="M88.1,68.4l0-33.7c1.4,0.3,28.5,6.1,28.5,32c0,0.4,0,8.4,0,10.2c0,6.1-3.5,14.9-15.7,15.1
	C80.3,92,56.4,92,55.2,91.9C86.1,90.8,88.1,81.2,88.1,68.4L88.1,68.4z"/>
<polygon class="st2" points="149.3,83.1 166.9,83.1 166.9,87.4 155.8,87.4 "/>
<polygon class="st0" points="135.6,73.8 166.9,73.8 166.9,80 144.7,80 "/>
<polygon class="st2" points="464.8,83.1 447.2,83.1 447.2,87.4 458.4,87.4 "/>
<polygon class="st0" points="478.5,73.8 447.2,73.8 447.2,80 469.4,80 "/>
<polygon class="st3" points="293,62.5 304.9,4.6 339.2,4.6 336.3,18.6 317.2,18.6 315.7,26 327.5,26 324.6,39.9 312.8,39.9 
	308.1,62.5 "/>
<path class="st3" d="M349.5,49.3c2.6,0,4.3-1.4,4.8-4.1l4.8-23.4c0.5-2.6-0.5-4-3.1-4c-2.6,0-4.2,1.3-4.7,4l-4.8,23.4
	C345.9,47.9,347,49.3,349.5,49.3L349.5,49.3z M331.3,46.7l5.4-26.1c1.1-5.4,3.8-9.6,8-12.6c3.9-2.8,8.6-4.2,14.3-4.2
	c5.5,0,9.7,1.4,12.5,4.2c3.1,3,4,7.2,2.9,12.6L369,46.7c-1.1,5.5-3.8,9.7-8,12.7c-4,2.7-8.7,4-14.3,4c-5.6,0-9.8-1.3-12.6-4
	C331.1,56.4,330.1,52.2,331.3,46.7L331.3,46.7z"/>
<path class="st3" d="M392.6,18.6l-2,9.8h3.8c3.5,0,5.5-1.6,6.2-4.9c0.7-3.3-0.7-5-4.1-5H392.6L392.6,18.6z M388.1,40.2l-4.6,22.3
	h-14.9l12-57.9H400c5.3,0,9.5,1.3,12.4,3.9c3.2,2.8,4.3,6.9,3.2,12.1l-0.6,2.7c-1.4,6.9-5.5,11.8-12.3,14.8l7.5,24.5h-16.3
	L388.1,40.2L388.1,40.2z"/>
<polygon class="st3" points="457.6,4.6 454.8,18.6 443.3,18.6 434.2,62.5 419.4,62.5 428.5,18.6 417.1,18.6 419.9,4.6 "/>
<polygon class="st3" points="497,4.6 494.1,18.6 472.6,18.6 471.1,26 482.8,26 480,39.9 468.2,39.9 466.4,48.2 488,48.2 485,62.5 
	448.6,62.5 460.5,4.6 "/>
<path class="st3" d="M156.4,18.6c-2.6,0-4.1,1.4-4.7,4.1l-4.5,21.5c-0.6,2.7,0.5,4,3,4h3.9l3.4-16.5h14.5l-6.4,30.8h-18.3
	c-5.5,0-9.7-1.4-12.5-4.3c-3-3-3.9-7.3-2.8-12.7l5-24.2c1.1-5.4,3.8-9.6,8-12.6c3.9-2.7,8.7-4.1,14.3-4.1h17.1l-2.9,14H156.4
	L156.4,18.6z"/>
<polygon class="st3" points="217.2,4.6 214.3,18.6 192.8,18.6 191.3,26 203.1,26 200.2,39.9 188.4,39.9 186.7,48.2 208.2,48.2 
	205.3,62.5 168.8,62.5 180.8,4.6 "/>
<path class="st3" d="M231.8,18.6l-2,9.8h3.8c3.5,0,5.5-1.6,6.2-4.9c0.7-3.3-0.7-5-4.1-5H231.8L231.8,18.6z M227.3,40.2l-4.6,22.3
	h-14.9l12-57.9h19.4c5.3,0,9.5,1.3,12.4,3.9c3.2,2.8,4.3,6.9,3.2,12.1l-0.6,2.7c-1.4,6.9-5.5,11.8-12.3,14.8l7.5,24.5h-16.3
	L227.3,40.2L227.3,40.2z"/>
<path class="st3" d="M279.8,20.5L272,42.4h6.6L279.8,20.5L279.8,20.5z M293,4.6l-1.5,57.9h-14.5l0.5-5.7h-10.5l-1.8,5.7h-14.3
	l22.4-57.9H293L293,4.6z"/>
<g>
	<path class="st4" d="M176.6,88.7c-0.8-0.4-1.4-1-1.9-1.8c-0.4-0.8-0.7-1.7-0.7-2.7v-5.6c0-1,0.2-1.9,0.7-2.7
		c0.4-0.8,1.1-1.4,1.9-1.8s1.7-0.6,2.8-0.6c1.1,0,2,0.2,2.8,0.6c0.8,0.4,1.4,1,1.9,1.7c0.4,0.7,0.7,1.5,0.7,2.5v0.2
		c0,0.1-0.1,0.2-0.2,0.2h-1.7c-0.1,0-0.2-0.1-0.2-0.2v-0.2c0-0.9-0.3-1.6-0.9-2.1c-0.6-0.5-1.4-0.8-2.3-0.8c-1,0-1.8,0.3-2.4,0.9
		c-0.6,0.6-0.9,1.3-0.9,2.3v5.8c0,1,0.3,1.7,0.9,2.3c0.6,0.6,1.4,0.9,2.4,0.9c1,0,1.7-0.3,2.3-0.8c0.6-0.5,0.8-1.2,0.8-2.1v-1.7
		c0-0.1,0-0.1-0.1-0.1h-3c-0.1,0-0.2-0.1-0.2-0.2v-1.4c0-0.1,0.1-0.2,0.2-0.2h4.9c0.1,0,0.2,0.1,0.2,0.2v2.8c0,1.7-0.5,3-1.4,3.9
		c-1,0.9-2.3,1.4-3.9,1.4C178.3,89.3,177.4,89.1,176.6,88.7z"/>
	<path class="st4" d="M197.8,89l-3.1-6.6c0,0,0-0.1-0.1-0.1h-3.2c-0.1,0-0.1,0-0.1,0.1v6.5c0,0.1-0.1,0.2-0.2,0.2h-1.7
		c-0.1,0-0.2-0.1-0.2-0.2V74c0-0.1,0.1-0.2,0.2-0.2h5.9c0.9,0,1.7,0.2,2.3,0.6c0.7,0.4,1.2,0.9,1.6,1.5c0.4,0.7,0.5,1.4,0.5,2.3
		c0,1-0.3,1.9-0.8,2.6c-0.5,0.7-1.3,1.2-2.2,1.4c-0.1,0-0.1,0.1,0,0.1l3.2,6.6c0,0,0,0.1,0,0.1c0,0.1-0.1,0.2-0.2,0.2H198
		C197.9,89.2,197.8,89.1,197.8,89z M191.4,75.7v4.9c0,0.1,0,0.1,0.1,0.1h3.7c0.8,0,1.4-0.2,1.9-0.7c0.5-0.5,0.7-1.1,0.7-1.8
		c0-0.8-0.2-1.4-0.7-1.9c-0.5-0.5-1.1-0.7-1.9-0.7L191.4,75.7C191.4,75.6,191.4,75.6,191.4,75.7z"/>
	<path class="st4" d="M206.5,88.7c-0.8-0.4-1.4-1-1.9-1.8c-0.5-0.8-0.7-1.7-0.7-2.7V74c0-0.1,0.1-0.2,0.2-0.2h1.7
		c0.1,0,0.2,0.1,0.2,0.2v10.3c0,1,0.3,1.7,0.9,2.3c0.6,0.6,1.4,0.9,2.4,0.9s1.8-0.3,2.4-0.9c0.6-0.6,0.9-1.4,0.9-2.3V74
		c0-0.1,0.1-0.2,0.2-0.2h1.7c0.1,0,0.2,0.1,0.2,0.2v10.3c0,1-0.2,1.9-0.7,2.7c-0.4,0.8-1.1,1.4-1.9,1.8c-0.8,0.4-1.8,0.6-2.8,0.6
		S207.3,89.1,206.5,88.7z"/>
	<path class="st4" d="M227.9,74.3c0.7,0.4,1.2,0.9,1.6,1.6s0.6,1.5,0.6,2.3s-0.2,1.7-0.6,2.3c-0.4,0.7-0.9,1.2-1.6,1.5
		c-0.7,0.4-1.5,0.6-2.4,0.6h-3.9c-0.1,0-0.1,0-0.1,0.1v6.2c0,0.1-0.1,0.2-0.2,0.2h-1.7c-0.1,0-0.2-0.1-0.2-0.2V74
		c0-0.1,0.1-0.2,0.2-0.2h5.9C226.4,73.7,227.2,73.9,227.9,74.3z M227.2,80.2c0.5-0.5,0.7-1.1,0.7-1.9c0-0.8-0.2-1.5-0.7-1.9
		c-0.5-0.5-1.1-0.7-1.9-0.7h-3.7c-0.1,0-0.1,0-0.1,0.1v5.1c0,0.1,0,0.1,0.1,0.1h3.7C226,80.9,226.7,80.6,227.2,80.2z"/>
	<path class="st4" d="M236,88.7c-0.8-0.4-1.5-1.1-1.9-1.9c-0.5-0.8-0.7-1.7-0.7-2.8v-5.2c0-1,0.2-2,0.7-2.8c0.5-0.8,1.1-1.4,1.9-1.8
		s1.8-0.7,2.8-0.7c1.1,0,2,0.2,2.9,0.7s1.5,1.1,1.9,1.8c0.5,0.8,0.7,1.7,0.7,2.8v5.2c0,1-0.2,2-0.7,2.8c-0.5,0.8-1.1,1.4-1.9,1.9
		c-0.8,0.4-1.8,0.7-2.9,0.7C237.8,89.4,236.8,89.1,236,88.7z M241.3,86.6c0.6-0.6,0.9-1.4,0.9-2.4v-5.3c0-1-0.3-1.9-0.9-2.5
		c-0.6-0.6-1.4-0.9-2.4-0.9c-1,0-1.8,0.3-2.4,0.9c-0.6,0.6-0.9,1.4-0.9,2.5v5.3c0,1,0.3,1.8,0.9,2.4c0.6,0.6,1.4,0.9,2.4,0.9
		C239.9,87.5,240.7,87.2,241.3,86.6z"/>
	<path class="st4" d="M250.7,88.8c-0.8-0.4-1.5-0.9-1.9-1.5c-0.4-0.6-0.7-1.4-0.7-2.3v-0.6c0-0.1,0.1-0.2,0.2-0.2h1.6
		c0.1,0,0.2,0.1,0.2,0.2v0.5c0,0.7,0.3,1.4,1,1.8s1.5,0.7,2.7,0.7c1,0,1.8-0.2,2.3-0.6c0.5-0.4,0.8-1,0.8-1.7c0-0.5-0.1-0.8-0.4-1.2
		c-0.3-0.3-0.6-0.6-1.2-0.9s-1.2-0.6-2.2-1c-1.1-0.4-1.9-0.8-2.5-1.1c-0.6-0.3-1.1-0.8-1.6-1.3c-0.4-0.5-0.6-1.2-0.6-2.1
		c0-1.3,0.5-2.3,1.4-3c0.9-0.7,2.1-1.1,3.7-1.1c1.1,0,2,0.2,2.9,0.5c0.8,0.4,1.5,0.9,1.9,1.5c0.4,0.7,0.7,1.4,0.7,2.3v0.4
		c0,0.1-0.1,0.2-0.2,0.2h-1.6c-0.1,0-0.2-0.1-0.2-0.2v-0.3c0-0.8-0.3-1.4-0.9-1.9c-0.6-0.5-1.4-0.8-2.5-0.8c-0.9,0-1.6,0.2-2.1,0.6
		c-0.5,0.4-0.7,0.9-0.7,1.6c0,0.5,0.1,0.9,0.4,1.2c0.2,0.3,0.6,0.6,1.1,0.8c0.5,0.2,1.2,0.6,2.3,0.9c1,0.4,1.9,0.8,2.5,1.1
		c0.6,0.3,1.2,0.8,1.6,1.4c0.4,0.6,0.6,1.3,0.6,2.1c0,1.3-0.5,2.3-1.4,3.1c-0.9,0.8-2.2,1.1-3.9,1.1
		C252.5,89.3,251.5,89.2,250.7,88.8z"/>
	<path class="st4" d="M278.8,75.6H271c-0.1,0-0.1,0-0.1,0.1v4.7c0,0.1,0,0.1,0.1,0.1h5.4c0.1,0,0.2,0.1,0.2,0.2v1.4
		c0,0.1-0.1,0.2-0.2,0.2H271c-0.1,0-0.1,0-0.1,0.1v4.8c0,0.1,0,0.1,0.1,0.1h7.8c0.1,0,0.2,0.1,0.2,0.2v1.4c0,0.1-0.1,0.2-0.2,0.2
		H269c-0.1,0-0.2-0.1-0.2-0.2V74c0-0.1,0.1-0.2,0.2-0.2h9.8c0.1,0,0.2,0.1,0.2,0.2v1.4C279.1,75.5,279,75.6,278.8,75.6z"/>
	<path class="st4" d="M283.3,88.9V74c0-0.1,0.1-0.2,0.2-0.2h1.7c0.1,0,0.2,0.1,0.2,0.2v13.3c0,0.1,0,0.1,0.1,0.1h7.6
		c0.1,0,0.2,0.1,0.2,0.2v1.4c0,0.1-0.1,0.2-0.2,0.2h-9.6C283.4,89.2,283.3,89.1,283.3,88.9z"/>
	<path class="st4" d="M307.2,75.6h-7.8c-0.1,0-0.1,0-0.1,0.1v4.7c0,0.1,0,0.1,0.1,0.1h5.4c0.1,0,0.2,0.1,0.2,0.2v1.4
		c0,0.1-0.1,0.2-0.2,0.2h-5.4c-0.1,0-0.1,0-0.1,0.1v4.8c0,0.1,0,0.1,0.1,0.1h7.8c0.1,0,0.2,0.1,0.2,0.2v1.4c0,0.1-0.1,0.2-0.2,0.2
		h-9.8c-0.1,0-0.2-0.1-0.2-0.2V74c0-0.1,0.1-0.2,0.2-0.2h9.8c0.1,0,0.2,0.1,0.2,0.2v1.4C307.4,75.5,307.3,75.6,307.2,75.6z"/>
	<path class="st4" d="M313.8,88.7c-0.8-0.4-1.4-1-1.9-1.8c-0.4-0.8-0.7-1.7-0.7-2.7v-5.7c0-1,0.2-1.9,0.7-2.6
		c0.4-0.8,1.1-1.3,1.9-1.8s1.7-0.6,2.8-0.6c1.1,0,2,0.2,2.8,0.6s1.4,1,1.9,1.7c0.4,0.7,0.7,1.6,0.7,2.6v0c0,0.1,0,0.1-0.1,0.2
		s-0.1,0.1-0.2,0.1l-1.7,0.1c-0.1,0-0.2-0.1-0.2-0.2v-0.1c0-0.9-0.3-1.7-0.9-2.3c-0.6-0.6-1.4-0.9-2.4-0.9s-1.8,0.3-2.4,0.9
		c-0.6,0.6-0.9,1.3-0.9,2.3v5.9c0,0.9,0.3,1.7,0.9,2.3c0.6,0.6,1.4,0.9,2.4,0.9s1.8-0.3,2.4-0.9c0.6-0.6,0.9-1.3,0.9-2.3v0
		c0-0.1,0.1-0.2,0.2-0.2l1.7,0.1c0.1,0,0.2,0.1,0.2,0.2c0,1-0.2,1.8-0.7,2.6c-0.4,0.7-1.1,1.3-1.9,1.7c-0.8,0.4-1.7,0.6-2.8,0.6
		C315.5,89.4,314.6,89.1,313.8,88.7z"/>
	<path class="st4" d="M336.1,74v1.4c0,0.1-0.1,0.2-0.2,0.2h-4.2c-0.1,0-0.1,0-0.1,0.1v13.2c0,0.1-0.1,0.2-0.2,0.2h-1.7
		c-0.1,0-0.2-0.1-0.2-0.2V75.7c0-0.1,0-0.1-0.1-0.1h-4c-0.1,0-0.2-0.1-0.2-0.2V74c0-0.1,0.1-0.2,0.2-0.2h10.5
		C336,73.8,336.1,73.8,336.1,74z"/>
	<path class="st4" d="M348.6,89l-3.1-6.6c0,0,0-0.1-0.1-0.1h-3.2c-0.1,0-0.1,0-0.1,0.1v6.5c0,0.1-0.1,0.2-0.2,0.2h-1.7
		c-0.1,0-0.2-0.1-0.2-0.2V74c0-0.1,0.1-0.2,0.2-0.2h5.9c0.9,0,1.7,0.2,2.3,0.6c0.7,0.4,1.2,0.9,1.6,1.5c0.4,0.7,0.6,1.4,0.6,2.3
		c0,1-0.3,1.9-0.8,2.6c-0.5,0.7-1.3,1.2-2.2,1.4c-0.1,0-0.1,0.1,0,0.1l3.2,6.6c0,0,0,0.1,0,0.1c0,0.1-0.1,0.2-0.2,0.2h-1.7
		C348.7,89.2,348.6,89.1,348.6,89z M342.2,75.7v4.9c0,0.1,0,0.1,0.1,0.1h3.7c0.8,0,1.4-0.2,1.9-0.7c0.5-0.5,0.7-1.1,0.7-1.8
		c0-0.8-0.2-1.4-0.7-1.9c-0.5-0.5-1.1-0.7-1.9-0.7L342.2,75.7C342.2,75.6,342.2,75.6,342.2,75.7z"/>
	<path class="st4" d="M357,88.7c-0.8-0.4-1.5-1.1-1.9-1.9c-0.5-0.8-0.7-1.7-0.7-2.8v-5.2c0-1,0.2-2,0.7-2.8c0.5-0.8,1.1-1.4,1.9-1.8
		c0.8-0.4,1.8-0.7,2.8-0.7c1.1,0,2,0.2,2.9,0.7s1.5,1.1,1.9,1.8c0.5,0.8,0.7,1.7,0.7,2.8v5.2c0,1-0.2,2-0.7,2.8
		c-0.5,0.8-1.1,1.4-1.9,1.9c-0.8,0.4-1.8,0.7-2.9,0.7C358.8,89.4,357.9,89.1,357,88.7z M362.3,86.6c0.6-0.6,0.9-1.4,0.9-2.4v-5.3
		c0-1-0.3-1.9-0.9-2.5c-0.6-0.6-1.4-0.9-2.4-0.9c-1,0-1.8,0.3-2.4,0.9c-0.6,0.6-0.9,1.4-0.9,2.5v5.3c0,1,0.3,1.8,0.9,2.4
		c0.6,0.6,1.4,0.9,2.4,0.9C360.9,87.5,361.7,87.2,362.3,86.6z"/>
	<path class="st4" d="M372,88.7c-0.8-0.4-1.4-1-1.9-1.8c-0.4-0.8-0.7-1.7-0.7-2.7v-5.6c0-1,0.2-1.9,0.7-2.7s1.1-1.4,1.9-1.8
		c0.8-0.4,1.7-0.6,2.8-0.6s2,0.2,2.8,0.6c0.8,0.4,1.4,1,1.9,1.7c0.4,0.7,0.7,1.5,0.7,2.5v0.2c0,0.1-0.1,0.2-0.2,0.2h-1.7
		c-0.1,0-0.2-0.1-0.2-0.2v-0.2c0-0.9-0.3-1.6-0.9-2.1c-0.6-0.5-1.4-0.8-2.3-0.8c-1,0-1.8,0.3-2.4,0.9c-0.6,0.6-0.9,1.3-0.9,2.3v5.8
		c0,1,0.3,1.7,0.9,2.3c0.6,0.6,1.4,0.9,2.4,0.9c1,0,1.7-0.3,2.3-0.8s0.8-1.2,0.8-2.1v-1.7c0-0.1,0-0.1-0.1-0.1h-3
		c-0.1,0-0.2-0.1-0.2-0.2v-1.4c0-0.1,0.1-0.2,0.2-0.2h5c0.1,0,0.2,0.1,0.2,0.2v2.8c0,1.7-0.5,3-1.4,3.9c-1,0.9-2.3,1.4-3.9,1.4
		C373.8,89.3,372.8,89.1,372,88.7z"/>
	<path class="st4" d="M394.7,75.6h-7.8c-0.1,0-0.1,0-0.1,0.1v4.7c0,0.1,0,0.1,0.1,0.1h5.4c0.1,0,0.2,0.1,0.2,0.2v1.4
		c0,0.1-0.1,0.2-0.2,0.2h-5.4c-0.1,0-0.1,0-0.1,0.1v4.8c0,0.1,0,0.1,0.1,0.1h7.8c0.1,0,0.2,0.1,0.2,0.2v1.4c0,0.1-0.1,0.2-0.2,0.2
		h-9.8c-0.1,0-0.2-0.1-0.2-0.2V74c0-0.1,0.1-0.2,0.2-0.2h9.8c0.1,0,0.2,0.1,0.2,0.2v1.4C394.9,75.5,394.8,75.6,394.7,75.6z"/>
	<path class="st4" d="M408.4,73.8h1.7c0.1,0,0.2,0.1,0.2,0.2v15c0,0.1-0.1,0.2-0.2,0.2h-1.6c-0.1,0-0.2-0.1-0.3-0.2l-6.9-11.2
		c0,0,0-0.1-0.1-0.1c0,0,0,0,0,0.1l0,11.2c0,0.1-0.1,0.2-0.2,0.2h-1.7c-0.1,0-0.2-0.1-0.2-0.2V74c0-0.1,0.1-0.2,0.2-0.2h1.6
		c0.1,0,0.2,0.1,0.3,0.2l6.9,11.2c0,0,0,0.1,0.1,0.1c0,0,0,0,0-0.1l0-11.2C408.2,73.8,408.3,73.8,408.4,73.8z"/>
	<path class="st4" d="M417.5,88.7c-0.8-0.4-1.5-1.1-1.9-1.9c-0.5-0.8-0.7-1.7-0.7-2.8v-5.2c0-1,0.2-2,0.7-2.8
		c0.5-0.8,1.1-1.4,1.9-1.8c0.8-0.4,1.8-0.7,2.8-0.7c1.1,0,2,0.2,2.9,0.7s1.5,1.1,1.9,1.8c0.5,0.8,0.7,1.7,0.7,2.8v5.2
		c0,1-0.2,2-0.7,2.8c-0.5,0.8-1.1,1.4-1.9,1.9c-0.8,0.4-1.8,0.7-2.9,0.7C419.2,89.4,418.3,89.1,417.5,88.7z M422.7,86.6
		c0.6-0.6,0.9-1.4,0.9-2.4v-5.3c0-1-0.3-1.9-0.9-2.5c-0.6-0.6-1.4-0.9-2.4-0.9c-1,0-1.8,0.3-2.4,0.9c-0.6,0.6-0.9,1.4-0.9,2.5v5.3
		c0,1,0.3,1.8,0.9,2.4c0.6,0.6,1.4,0.9,2.4,0.9C421.3,87.5,422.1,87.2,422.7,86.6z"/>
	<path class="st4" d="M432.1,88.8c-0.8-0.4-1.5-0.9-1.9-1.5s-0.7-1.4-0.7-2.3v-0.6c0-0.1,0.1-0.2,0.2-0.2h1.6c0.1,0,0.2,0.1,0.2,0.2
		v0.5c0,0.7,0.3,1.4,1,1.8s1.5,0.7,2.7,0.7c1,0,1.8-0.2,2.3-0.6c0.5-0.4,0.8-1,0.8-1.7c0-0.5-0.1-0.8-0.4-1.2
		c-0.3-0.3-0.6-0.6-1.2-0.9s-1.2-0.6-2.2-1c-1.1-0.4-1.9-0.8-2.5-1.1c-0.6-0.3-1.1-0.8-1.6-1.3c-0.4-0.5-0.6-1.2-0.6-2.1
		c0-1.3,0.5-2.3,1.4-3c0.9-0.7,2.1-1.1,3.7-1.1c1.1,0,2,0.2,2.9,0.5c0.8,0.4,1.5,0.9,1.9,1.5s0.7,1.4,0.7,2.3v0.4
		c0,0.1-0.1,0.2-0.2,0.2h-1.7c-0.1,0-0.2-0.1-0.2-0.2v-0.3c0-0.8-0.3-1.4-0.9-1.9c-0.6-0.5-1.4-0.8-2.5-0.8c-0.9,0-1.6,0.2-2.1,0.6
		c-0.5,0.4-0.7,0.9-0.7,1.6c0,0.5,0.1,0.9,0.4,1.2c0.2,0.3,0.6,0.6,1.1,0.8c0.5,0.2,1.2,0.6,2.3,0.9c1,0.4,1.9,0.8,2.5,1.1
		c0.6,0.3,1.2,0.8,1.6,1.4c0.4,0.6,0.6,1.3,0.6,2.1c0,1.3-0.5,2.3-1.4,3.1c-0.9,0.8-2.2,1.1-3.9,1.1
		C433.9,89.3,432.9,89.2,432.1,88.8z"/>
</g>
</svg>
