<svg xmlns="http://www.w3.org/2000/svg" width="60" height="63.72" viewBox="0 0 60 63.72">
  <defs>
    <style>
      .cls-1 {
        fill: #fff;
        fill-rule: evenodd;
      }
    </style>
  </defs>
  <path class="cls-1" d="M160.656,5564.01v-2.45a22.383,22.383,0,0,0-5.842-15.36,20.163,20.163,0,0,0-14.954-6.43h-2.023a20.163,20.163,0,0,0-14.954,6.43,22.383,22.383,0,0,0-5.842,15.36v2.45a8.8,8.8,0,0,0-8.2,8.76v3.82a8.782,8.782,0,0,0,8.777,8.77h4.945a1.608,1.608,0,0,0,1.607-1.6v-18.17a1.61,1.61,0,0,0-1.607-1.61h-2.3v-2.42c0-10.59,7.557-18.57,17.566-18.57h2.024c10.023,0,17.566,7.98,17.566,18.57v2.42h-2.3a1.61,1.61,0,0,0-1.608,1.61v18.15a1.61,1.61,0,0,0,1.608,1.61h2.251c-0.656,8.38-6.432,10.32-9.112,10.76a5.651,5.651,0,0,0-5.373-3.89h-4.02a5.64,5.64,0,1,0,0,11.28h4.034a5.647,5.647,0,0,0,5.44-4.15,14.966,14.966,0,0,0,5.453-1.86c2.908-1.7,6.351-5.16,6.807-12.15a8.785,8.785,0,0,0,8.241-8.76v-3.83a8.746,8.746,0,0,0-8.174-8.74h0Zm-39.676,18.13h-3.336a5.562,5.562,0,0,1-5.561-5.56v-3.83a5.562,5.562,0,0,1,5.561-5.56h3.336v14.95Zm21.909,18.15h-4.034a2.425,2.425,0,1,1,0-4.85h4.034a2.425,2.425,0,1,1,0,4.85h0Zm22.738-23.71a5.562,5.562,0,0,1-5.561,5.56H156.73v-14.95h3.336a5.562,5.562,0,0,1,5.561,5.56v3.83Zm0,0" transform="translate(-108.844 -5539.78)"/>
</svg>
