<svg xmlns="http://www.w3.org/2000/svg" width="63.937" height="44.69" viewBox="0 0 63.937 44.69">
  <defs>
    <style>
      .cls-1 {
        fill: #fff;
        fill-rule: evenodd;
      }
    </style>
  </defs>
  <path class="cls-1" d="M678.889,5583.28l-2.787-1.2v-1.88a28.138,28.138,0,0,0-18.767-26.62v-2.68a1.569,1.569,0,0,0-1.569-1.57H639.992a1.569,1.569,0,0,0-1.57,1.57v2.69a28.135,28.135,0,0,0-18.766,26.62v1.9l-2.758,1.17a1.579,1.579,0,0,0-.957,1.45v7.74a1.569,1.569,0,0,0,1.57,1.57h60.78a1.569,1.569,0,0,0,1.57-1.57v-7.74A1.58,1.58,0,0,0,678.889,5583.28ZM654.2,5552.49v24.46H641.562l-0.03-24.46H654.2Zm-31.386,30.63v-2.95a24.989,24.989,0,0,1,15.612-23.24v21.59a1.575,1.575,0,0,0,1.57,1.57h15.8a1.576,1.576,0,0,0,1.571-1.57v-21.59a24.965,24.965,0,0,1,15.627,23.27v2.95a1.579,1.579,0,0,0,.957,1.45l2.787,1.2v5.1h-57.67v-5.13l2.786-1.2A1.579,1.579,0,0,0,622.81,5583.12Z" transform="translate(-615.938 -5549.34)"/>
</svg>
