<svg xmlns="http://www.w3.org/2000/svg" width="53.937" height="53.9" viewBox="0 0 53.937 53.9">
  <defs>
    <style>
      .cls-1 {
        fill: #fff;
        fill-rule: evenodd;
      }
    </style>
  </defs>
  <path class="cls-1" d="M110.271,5838.86a1.87,1.87,0,0,1-.55-1.34l0.167-23.05a2,2,0,0,1,1.924-1.94l23.063-.16a1.864,1.864,0,0,1,1.343.54,1.889,1.889,0,0,1,.55,1.35,1.936,1.936,0,0,1-1.922,1.92l-18.459.14,43.308,43.3,0.133-18.45a1.946,1.946,0,0,1,1.924-1.93,1.911,1.911,0,0,1,1.342.55,1.891,1.891,0,0,1,.552,1.35l-0.168,23.06a1.967,1.967,0,0,1-1.924,1.92l-23.06.17a1.88,1.88,0,0,1-1.893-1.89,1.926,1.926,0,0,1,1.921-1.92l18.459-.14-43.31-43.31-0.134,18.46a1.927,1.927,0,0,1-1.921,1.92,1.875,1.875,0,0,1-1.345-.55h0Z" transform="translate(-109.719 -5812.38)"/>
</svg>
