<svg xmlns="http://www.w3.org/2000/svg" width="72.625" height="36.68" viewBox="0 0 72.625 36.68">
  <defs>
    <style>
      .cls-1 {
        fill: #fff;
        fill-rule: evenodd;
      }
    </style>
  </defs>
  <path class="cls-1" d="M681.741,5855.32a0.241,0.241,0,0,0,.08-0.02c0.023,0,.046-0.01.068-0.01l0.078-.03,0.068-.03,0.071-.03,0.068-.03c0.023-.01.045-0.03,0.066-0.04s0.045-.03.068-0.04,0.044-.03.066-0.05,0.039-.03.058-0.04c0.034-.03.066-0.06,0.1-0.09,0.006-.01.013-0.01,0.018-0.02s0.011-.01.016-0.01c0.031-.04.06-0.07,0.087-0.1s0.031-.04.046-0.06l0.047-.06c0.015-.03.029-0.05,0.043-0.08l0.036-.06a0.377,0.377,0,0,0,.036-0.07,0.4,0.4,0,0,0,.03-0.07,0.342,0.342,0,0,0,.027-0.07c0.008-.02.017-0.05,0.026-0.07s0.012-.05.018-0.08a0.663,0.663,0,0,0,.019-0.07c0.006-.03.009-0.06,0.013-0.09s0.007-.04.009-0.06c0-.05.008-0.11,0.008-0.16v-33.57a1.571,1.571,0,0,0-1.575-1.57H631.771a0.28,0.28,0,0,0-.09.01H631.61c-0.027.01-.053,0.01-0.08,0.02s-0.049.01-.074,0.01-0.05.01-.075,0.02a0.2,0.2,0,0,1-.072.02l-0.074.03-0.068.03-0.073.03a0.244,0.244,0,0,1-.061.04c-0.025.01-.048,0.03-0.072,0.04s-0.039.03-.059,0.04-0.044.03-.065,0.05-0.039.03-.059,0.05a0.249,0.249,0,0,0-.055.05q-0.031.03-.06,0.06-0.016.015-.03,0.03c-0.006.01-.01,0.01-0.016,0.02s-0.039.05-.057,0.07a0.218,0.218,0,0,1-.04.05,0.425,0.425,0,0,1-.046.07c-0.013.02-.026,0.04-0.037,0.06s-0.025.05-.036,0.08-0.023.04-.033,0.06-0.019.05-.028,0.08a0.418,0.418,0,0,0-.026.07c-0.007.02-.015,0.05-0.021,0.07s-0.014.05-.019,0.07-0.01.05-.013,0.08a0.608,0.608,0,0,0-.013.08c0,0.02,0,.04-0.006.07s0,0.06,0,.09c0,0,0,.01,0,0.02v9.69a1.575,1.575,0,0,0,3.15,0v-6.2l14.006,12.36a1.254,1.254,0,0,0-.21.18l-13.8,13.75v-10.32a1.575,1.575,0,0,0-3.15,0v1.92H622.1a1.57,1.57,0,1,0,0,3.14h8.139v9.05a1.57,1.57,0,0,0,1.575,1.57h49.776a0.18,0.18,0,0,1,.072-0.01c0.026-.01.053-0.01,0.081-0.02h0Zm-1.883-5.33-13.8-13.75-0.028-.03,10.373-8.77a1.575,1.575,0,1,0-2.039-2.4l-17.723,14.99-20.676-18.25h43.89v28.21Zm-30.446-11.53a1.867,1.867,0,0,0,.275-0.37l5.891,5.2a1.585,1.585,0,0,0,1.045.39,1.565,1.565,0,0,0,1.019-.37l6-5.08a1.635,1.635,0,0,0,.187.23l13.8,13.75H635.615Zm0,0-37.466-1.93h26.6a1.57,1.57,0,1,0,0-3.14h-26.6a1.57,1.57,0,1,0,0,3.14h0Zm0,0,2.757-8.66h11.946a1.57,1.57,0,1,0,0-3.14H614.7a1.57,1.57,0,1,0,0,3.14h0Zm0,0,8.8,20.35H611.946a1.57,1.57,0,1,0,0,3.14H623.5a1.57,1.57,0,1,0,0-3.14h0Zm0,0" transform="translate(-610.375 -5818.66)"/>
</svg>
