<svg xmlns="http://www.w3.org/2000/svg" width="64" height="53.88" viewBox="0 0 64 53.88">
  <defs>
    <style>
      .cls-1 {
        fill: #fff;
        fill-rule: evenodd;
      }
    </style>
  </defs>
  <path class="cls-1" d="M170.444,6094.33H157.707l1.284-18.55h2.92l1.149,14.51,0,0.01a1.651,1.651,0,0,0,1.513,1.43,0.93,0.93,0,0,0,.233-0.02,1.434,1.434,0,0,0,1.113-.5,1.532,1.532,0,0,0,.32-1.25l-1.447-15.92a1.572,1.572,0,0,0-1.592-1.45h-5.793a1.567,1.567,0,0,0-1.592,1.44l-1.3,20.3h-0.984l-14.155-8.53a1.465,1.465,0,0,0-1.607,0,1.673,1.673,0,0,0-.788,1.43v5.83L124.9,6085.8a1.467,1.467,0,0,0-1.608,0,1.673,1.673,0,0,0-.788,1.43v5.83l-12.088-7.26a1.467,1.467,0,0,0-1.608,0,1.673,1.673,0,0,0-.788,1.43v37.66a1.507,1.507,0,0,0,1.592,1.59h31.865a1.59,1.59,0,1,0,0-3.18H111.2v-33.21l12.088,7.25a1.467,1.467,0,0,0,1.608,0,1.644,1.644,0,0,0,.787-1.42v-5.83l12.089,7.25a1.465,1.465,0,0,0,1.607,0,1.644,1.644,0,0,0,.789-1.42v-5.83l12.08,7.25a1.234,1.234,0,0,0,.812.17h15.789v25.79h-2.61v-15.79a1.51,1.51,0,0,0-1.592-1.6H147.27a1.51,1.51,0,0,0-1.592,1.6v17.38a1.507,1.507,0,0,0,1.592,1.59h23.174a1.507,1.507,0,0,0,1.592-1.59v-28.97A1.507,1.507,0,0,0,170.444,6094.33Zm-21.582,28.97v-14.2h5.507v14.2h-5.507Zm8.69,0v-14.2h5.507v14.2h-5.507Zm-16.075-17.39H115.406a1.509,1.509,0,0,0-1.592,1.6v8.69a1.506,1.506,0,0,0,1.592,1.59h26.071a1.506,1.506,0,0,0,1.591-1.59v-8.69A1.509,1.509,0,0,0,141.477,6105.91Zm-24.48,8.7v-5.51h22.888v5.51H117Z" transform="translate(-108.031 -6072.59)"/>
</svg>
