<svg xmlns="http://www.w3.org/2000/svg" width="63.813" height="63.81" viewBox="0 0 63.813 63.81">
  <defs>
    <style>
      .cls-1 {
        fill: #fff;
        fill-rule: evenodd;
      }
    </style>
  </defs>
  <path class="cls-1" d="M647.725,6131.28a31.915,31.915,0,1,1,31.912-31.91A31.951,31.951,0,0,1,647.725,6131.28Zm0-60.52a28.605,28.605,0,1,0,28.6,28.61A28.642,28.642,0,0,0,647.725,6070.76Zm-3.9,39.79H643.76a1.649,1.649,0,0,1-1.181-.5l-9.371-9.53a1.633,1.633,0,0,1-.476-1.17,1.66,1.66,0,0,1,2.838-1.15l8.142,8.28,16.126-17.76a1.675,1.675,0,0,1,1.227-.54,1.63,1.63,0,0,1,1.11.43,1.659,1.659,0,0,1,.112,2.34l-17.3,19.06A1.689,1.689,0,0,1,643.829,6110.55Z" transform="translate(-615.812 -6067.47)"/>
</svg>
