<svg xmlns="http://www.w3.org/2000/svg" width="77.219" height="54.28" viewBox="0 0 77.219 54.28">
  <defs>
    <style>
      .cls-1 {
        fill: #fff;
        fill-rule: evenodd;
      }
    </style>
  </defs>
  <path class="cls-1" d="M172.835,6369.45l-5.151-2.23-4.4-8.57a7.2,7.2,0,0,0-6.449-3.95h-7.458v-1.93a7.3,7.3,0,0,0-7.256-7.33H105.586a7.286,7.286,0,0,0-7.222,7.33v33.09a4.55,4.55,0,0,0,4.48,4.61h0.735c0,0.04,0,.07,0,0.11a9.121,9.121,0,0,0,9.071,9.15h0.033a9.125,9.125,0,0,0,9.109-9.08v-0.2h29.049v0.11a9.121,9.121,0,0,0,9.072,9.15h0.032a9.126,9.126,0,0,0,9.11-9.08v-0.2h1.98a4.553,4.553,0,0,0,4.548-4.55v-12.23A4.551,4.551,0,0,0,172.835,6369.45ZM112.7,6385.41a5.225,5.225,0,1,1-5.22,5.22A5.224,5.224,0,0,1,112.7,6385.41Zm-0.045-3.92a9.025,9.025,0,0,0-8.139,5.12h-1.6a0.656,0.656,0,0,1-.661-0.71v-8.6H145.49v9.31H120.881a9.041,9.041,0,0,0-8.14-5.12h-0.088Zm-7.067-32.14h36.533a3.406,3.406,0,0,1,3.371,3.42v20.64H102.252v-20.62A3.39,3.39,0,0,1,105.586,6349.35Zm58.067,44.97a5.221,5.221,0,1,1,1.526-3.69A5.183,5.183,0,0,1,163.653,6394.32Zm-7.543-11.97a9.079,9.079,0,0,0-4.333,4.26h-2.4v-16h16.515l5.4,2.38a0.778,0.778,0,0,1,.421.72v12.19a0.656,0.656,0,0,1-.661.71h-2.905a9.151,9.151,0,0,0-8.188-5.12A9,9,0,0,0,156.11,6382.35Zm-6.733-15.63v-8.11h7.459a3.385,3.385,0,0,1,3,1.81l3.254,6.3H149.377Z" transform="translate(-98.375 -6345.44)"/>
</svg>
