<svg xmlns="http://www.w3.org/2000/svg" width="63.719" height="63.71" viewBox="0 0 63.719 63.71">
  <defs>
    <style>
      .cls-1 {
        fill: #fff;
        fill-rule: evenodd;
      }
    </style>
  </defs>
  <path class="cls-1" d="M644.311,6409.59a5.64,5.64,0,0,1-5.631-5.63v-1.58l-0.2-.06a26.064,26.064,0,0,1-3.986-1.66l-0.188-.09-1.117,1.11a5.63,5.63,0,0,1-7.964,0l-2.853-2.85a5.626,5.626,0,0,1,0-7.96l1.117-1.12-0.1-.19a25.8,25.8,0,0,1-1.654-3.98l-0.065-.21H620.1a5.633,5.633,0,0,1-5.631-5.63v-4.03a5.633,5.633,0,0,1,5.631-5.63h1.576l0.065-.2a25.906,25.906,0,0,1,1.654-3.99l0.1-.19-1.118-1.12a5.626,5.626,0,0,1,0-7.96l2.853-2.85a5.629,5.629,0,0,1,7.963,0l1.117,1.11,0.188-.09a26.075,26.075,0,0,1,3.987-1.66l0.2-.06v-1.58a5.639,5.639,0,0,1,5.63-5.63h4.036a5.64,5.64,0,0,1,5.631,5.63v1.58l0.2,0.06a26.075,26.075,0,0,1,3.987,1.66l0.188,0.09,1.117-1.11a5.63,5.63,0,0,1,7.964,0l2.852,2.85a5.625,5.625,0,0,1,0,7.96l-1.117,1.12,0.1,0.19a25.812,25.812,0,0,1,1.655,3.99l0.064,0.2h1.577a5.633,5.633,0,0,1,5.631,5.63v4.03a5.633,5.633,0,0,1-5.631,5.63h-1.576l-0.065.21a25.7,25.7,0,0,1-1.655,3.98l-0.1.19,1.117,1.12a5.625,5.625,0,0,1,0,7.96l-2.853,2.85a5.63,5.63,0,0,1-7.964,0l-1.116-1.11-0.188.09a25.343,25.343,0,0,1-3.987,1.66l-0.2.06v1.58a5.64,5.64,0,0,1-5.631,5.63h-4.036Zm-10.263-12.6a1.533,1.533,0,0,1,.795.22,22.483,22.483,0,0,0,5.831,2.42,1.607,1.607,0,0,1,1.2,1.55v2.78a2.44,2.44,0,0,0,2.44,2.44h4.036a2.441,2.441,0,0,0,2.442-2.44v-2.78a1.606,1.606,0,0,1,1.2-1.55,22.519,22.519,0,0,0,5.832-2.42,1.644,1.644,0,0,1,.811-0.22,1.593,1.593,0,0,1,1.128.47l1.97,1.97a2.453,2.453,0,0,0,3.452,0l2.855-2.86a2.438,2.438,0,0,0,0-3.45l-1.971-1.97a1.593,1.593,0,0,1-.245-1.94,22.428,22.428,0,0,0,2.421-5.83,1.6,1.6,0,0,1,1.543-1.2h2.782a2.44,2.44,0,0,0,2.441-2.44v-4.03a2.44,2.44,0,0,0-2.441-2.44h-2.782a1.6,1.6,0,0,1-1.544-1.2,22.357,22.357,0,0,0-2.42-5.83,1.593,1.593,0,0,1,.245-1.94l1.971-1.97a2.438,2.438,0,0,0,0-3.45l-2.854-2.86a2.453,2.453,0,0,0-3.452,0l-1.971,1.97a1.593,1.593,0,0,1-1.128.47,1.644,1.644,0,0,1-.811-0.22,22.49,22.49,0,0,0-5.832-2.42,1.6,1.6,0,0,1-1.2-1.55v-2.78a2.447,2.447,0,0,0-2.442-2.44h-4.035a2.447,2.447,0,0,0-2.441,2.44v2.78a1.6,1.6,0,0,1-1.2,1.55,22.512,22.512,0,0,0-5.831,2.42,1.651,1.651,0,0,1-.812.22,1.593,1.593,0,0,1-1.128-.47l-1.97-1.97a2.453,2.453,0,0,0-3.452,0l-2.854,2.86a2.439,2.439,0,0,0,0,3.45l1.971,1.97a1.593,1.593,0,0,1,.245,1.94,22.391,22.391,0,0,0-2.42,5.83,1.6,1.6,0,0,1-1.545,1.2H620.1a2.44,2.44,0,0,0-2.441,2.44v4.03a2.44,2.44,0,0,0,2.441,2.44h2.781a1.6,1.6,0,0,1,1.545,1.2,22.391,22.391,0,0,0,2.42,5.83,1.593,1.593,0,0,1-.245,1.94l-1.971,1.97a2.438,2.438,0,0,0,0,3.45l2.854,2.86a2.426,2.426,0,0,0,1.729.71h0a2.418,2.418,0,0,0,1.723-.71l1.971-1.97A1.662,1.662,0,0,1,634.048,6396.99Zm12.281-5.56a13.705,13.705,0,1,1,13.7-13.71A13.722,13.722,0,0,1,646.329,6391.43Zm0-24.22a10.515,10.515,0,1,0,10.514,10.51A10.527,10.527,0,0,0,646.329,6367.21Z" transform="translate(-614.469 -6345.88)"/>
</svg>
