<svg xmlns="http://www.w3.org/2000/svg" width="59.969" height="60" viewBox="0 0 59.969 60">
  <defs>
    <style>
      .cls-1 {
        fill: #fff;
        fill-rule: evenodd;
      }
    </style>
  </defs>
  <path class="cls-1" d="M110.38,6677.49a1.516,1.516,0,0,1-1.515-1.51v-56.95a1.509,1.509,0,0,1,1.515-1.51h56.949a1.51,1.51,0,0,1,1.515,1.51v56.95a1.516,1.516,0,0,1-1.515,1.51H110.38Zm1.515-3.03h53.918v-53.92H147.458v12.79a1.514,1.514,0,0,1-.444,1.07l-3.544,3.54a1.5,1.5,0,0,1-2.142,0l-2.474-2.47-2.473,2.47a1.5,1.5,0,0,1-2.142,0l-3.545-3.54a1.518,1.518,0,0,1-.444-1.07v-12.79H111.9v53.92Zm21.385-41.76,2.03,2.03,2.472-2.48a1.525,1.525,0,0,1,2.143,0l2.474,2.48,2.029-2.03v-12.16H133.28v12.16Zm-5.059,37.7a12.235,12.235,0,0,1-8.656-3.56,12.007,12.007,0,0,1,0-17.17A12.164,12.164,0,1,1,128.221,6670.4Zm0-21.26a9.115,9.115,0,1,0,9.118,9.12A9.189,9.189,0,0,0,128.221,6649.14Zm2.291,6.09-4.064,8.09a1.5,1.5,0,0,1-1.071-.45l-2.659-2.66a1.515,1.515,0,0,1,0-2.14,1.525,1.525,0,0,1,2.143,0l1.587,1.59,4.246-4.25a1.517,1.517,0,0,1,2.142,2.15l-5.316,5.31A1.5,1.5,0,0,1,126.448,6663.32Zm26.7,3.8,0-.26a1.515,1.515,0,1,1,0-3.03h7.089a1.515,1.515,0,1,1,0,3.03H153.15Z" transform="translate(-108.875 -6617.5)"/>
</svg>
