<svg xmlns="http://www.w3.org/2000/svg" width="63.812" height="63.82" viewBox="0 0 63.812 63.82">
  <defs>
    <style>
      .cls-1 {
        fill: #fff;
        fill-rule: evenodd;
      }
    </style>
  </defs>
  <path class="cls-1" d="M624.5,6679.42a5.3,5.3,0,0,1-5.291-5.29v-53.25a5.3,5.3,0,0,1,5.291-5.29H657a5.253,5.253,0,0,1,3.741,1.55l5.353,5.35a5.264,5.264,0,0,1,1.55,3.75v15.93l6.356-6.36a5.29,5.29,0,1,1,7.482,7.48l-13.838,13.85v16.99a5.3,5.3,0,0,1-5.291,5.29H624.5Zm0-60.82a2.287,2.287,0,0,0-2.28,2.28v53.25a2.287,2.287,0,0,0,2.28,2.28h37.853a2.287,2.287,0,0,0,2.28-2.28v-13.98l-0.89.89a1.408,1.408,0,0,1-.589.36l-8.03,2.68a1.543,1.543,0,0,1-.476.08,1.5,1.5,0,0,1-1.428-1.98l2.677-8.03a1.489,1.489,0,0,1,.363-0.59l2.676-2.68-0.065.05c0.138-.12.84-0.82,5.649-5.64l0.113-.11v-15.22h-9.85a1.511,1.511,0,0,1-1.506-1.51v-9.85H624.5Zm34.14,36.84-1.612,4.83,4.837-1.61,1.361-1.36L660,6654.08Zm3.49-3.49,3.224,3.22,9.646-9.65-3.224-3.23Zm15.611-14.68a2.268,2.268,0,0,0-1.612.67l-2.225,2.22,3.224,3.23,2.225-2.23A2.279,2.279,0,0,0,677.739,6637.27Zm-21.453-10.32h8.346v-0.47a2.375,2.375,0,0,0-.668-1.86l-5.354-5.35a2.319,2.319,0,0,0-1.731-.67h-0.593v8.35Zm-28,10.58a1.505,1.505,0,1,1,0-3.01h26.5a1.505,1.505,0,1,1,0,3.01h-26.5Zm0,7.57a1.5,1.5,0,1,1,0-3.01H647.21a1.5,1.5,0,1,1,0,3.01H628.283Zm0,7.57a1.5,1.5,0,1,1,0-3.01H647.21a1.5,1.5,0,1,1,0,3.01H628.283Zm0,7.57a1.5,1.5,0,1,1,0-3.01H647.21a1.5,1.5,0,1,1,0,3.01H628.283Zm15.142,11.61a1.505,1.505,0,1,1,0-3.01h11.356a1.5,1.5,0,1,1,0,3.01H643.425Z" transform="translate(-619.219 -6615.59)"/>
</svg>
