<svg xmlns="http://www.w3.org/2000/svg" width="85.687" height="44.5" viewBox="0 0 85.687 44.5">
  <defs>
    <style>
      .cls-1 {
        fill: #fff;
        fill-rule: evenodd;
      }
    </style>
  </defs>
  <path class="cls-1" d="M147.012,6906.9a10.043,10.043,0,1,0-10.043,10.05,10.057,10.057,0,0,0,10.043-10.05h0Zm-10.043,6.7a6.7,6.7,0,1,1,6.7-6.7,6.7,6.7,0,0,1-6.7,6.7h0Zm0,0-17.409-6.7a10.043,10.043,0,1,0-10.043,10.05,10.057,10.057,0,0,0,10.043-10.05h0Zm-10.043,6.7a6.7,6.7,0,1,1,6.7-6.7,6.7,6.7,0,0,1-6.7,6.7h0Zm0,0,64.948-6.7a10.044,10.044,0,1,0-10.044,10.05,10.057,10.057,0,0,0,10.044-10.05h0Zm-10.044,6.7a6.7,6.7,0,1,1,6.7-6.7,6.7,6.7,0,0,1-6.7,6.7h0Zm0,0,0,3.35a15.576,15.576,0,0,0-13.726,8.28,15.517,15.517,0,0,0-27.452,0,15.582,15.582,0,0,0-13.726-8.28,15.341,15.341,0,0,0-15.4,15.06v7.7a1.676,1.676,0,0,0,1.674,1.68h82.356a1.675,1.675,0,0,0,1.674-1.68v-7.7a15.34,15.34,0,0,0-15.4-15.06h0Zm-27.452,3.34a12.051,12.051,0,0,1,12.052,11.72v6.03h-24.1v-6.03a12.051,12.051,0,0,1,12.052-11.72h0Zm-39.5,11.72a12.057,12.057,0,0,1,24.1,0v6.03h-24.1v-6.03Zm79.008,6.03h-24.1v-6.03a12.057,12.057,0,0,1,24.1,0v6.03Zm0,0" transform="translate(-94.125 -6896.88)"/>
</svg>
