<svg xmlns="http://www.w3.org/2000/svg" width="66.25" height="67.28" viewBox="0 0 66.25 67.28">
  <defs>
    <style>
      .cls-1 {
        fill: #fff;
        fill-rule: evenodd;
      }
    </style>
  </defs>
  <path class="cls-1" d="M679.086,6895.71a3.214,3.214,0,0,0-2.34-2.01,2.949,2.949,0,0,0-.662-0.07,3.34,3.34,0,0,0-2.364.99l-6.67,6.67-2.937-2.94,7.109-7.1a3.4,3.4,0,0,0,.956-3.11,3.309,3.309,0,0,0-2.071-2.4,17.586,17.586,0,0,0-23.714,13.42c-0.134.62-.267,1.31-0.385,1.92-0.762,3.91-1.71,8.78-4.453,11.52l-25.145,25.12A8.261,8.261,0,0,0,628.1,6949.4l25.144-25.12c2.744-2.74,7.616-3.69,11.533-4.45l0.044-.01c0.661-.13,1.286-0.25,1.876-0.38a17.412,17.412,0,0,0,9.474-4.9,2.877,2.877,0,0,0,.778-2.83A16.695,16.695,0,0,0,679.086,6895.71Zm-12.963,20.58c-0.022,0-.043.01-0.066,0.01-0.606.13-1.291,0.26-1.9,0.38-4.343.85-9.748,1.9-13.184,5.33l-25.144,25.13a5.057,5.057,0,1,1-7.152-7.15l25.145-25.12c3.436-3.44,4.488-8.84,5.333-13.18l0-.02c0.129-.67.252-1.3,0.375-1.88,0-.02.009-0.04,0.014-0.07a14.384,14.384,0,0,1,14.191-11.97,14.5,14.5,0,0,1,5.207.97,0.139,0.139,0,0,1,.094.08,0.253,0.253,0,0,1-.086.19l-8.242,8.23a1.593,1.593,0,0,0-.47,1.13,1.616,1.616,0,0,0,.47,1.14l12.993,12.98A14.259,14.259,0,0,1,666.123,6916.29Zm8.739-7.2-5.545-5.54,6.671-6.66a0.208,0.208,0,0,1,.091-0.06,0.4,0.4,0,0,1,.019.04A13.488,13.488,0,0,1,674.862,6909.09Zm-16.7-8.65a1.593,1.593,0,0,0-1.133.46l-3.686,3.69a1.593,1.593,0,0,0,0,2.26l5.2,5.2a1.6,1.6,0,0,0,2.267,0l3.686-3.68a1.593,1.593,0,0,0,.47-1.13,1.616,1.616,0,0,0-.47-1.14l-5.2-5.2A1.6,1.6,0,0,0,658.16,6900.44Zm1.518,8.21-2.937-2.93,1.419-1.42,2.937,2.94Zm-12.28,8.19a1.562,1.562,0,0,0-1.133.47l-21,20.98a1.6,1.6,0,0,0,2.267,2.26l21-20.98a1.6,1.6,0,0,0,0-2.26A1.565,1.565,0,0,0,647.4,6916.84Z" transform="translate(-614 -6884.53)"/>
</svg>
